<svg xmlns="http://www.w3.org/2000/svg" viewBox="0 0 2883 985" preserveAspectRatio="xMidYMid" width="2883" height="985" xmlns:xlink="http://www.w3.org/1999/xlink" style="shape-rendering:auto;display:block;background-position-x:0%;background-position-y:0%;background-size:auto;background-origin:padding-box;background-clip:border-box;background:scroll rgb(255, 255, 255) none  repeat;width:2883px;height:985px;;animation:none"><g><g transform="matrix(1,0,0,1,1301.5736083984375,826.1991577148438)" style="transform:matrix(1, 0, 0, 1, 1301.57, 826.199);;animation:none"><path transform="matrix(0.32750001549720764,0,0,0.32750001549720764,0,0)" fill="rgba(245, 125, 0, 0.414)" d="M84.717,33.597c0.791-2.503,1.186-5.138,1.186-7.773C85.903,11.594,74.308,0,60.079,0 c-9.881,0-18.445,5.534-22.793,13.702c-1.581-0.527-3.426-0.791-5.138-0.791c-9.486,0-17.128,7.642-17.128,17.128 c0,1.186,0.132,2.372,0.395,3.426C6.719,34.783,0,42.424,0,51.515C0,61.66,8.169,69.829,18.314,69.829h63.373 C91.831,69.829,100,61.66,100,51.515C99.868,42.556,93.281,35.046,84.717,33.597z" style="fill:rgba(245, 125, 0, 0.416);transform:matrix(0.3275, 0, 0, 0.3275, 0, 0);;animation:none"></path></g>
<g transform="matrix(1,0,0,1,2122.61279296875,969.796630859375)" style="transform:matrix(1, 0, 0, 1, 2122.61, 969.797);;animation:none"><path transform="matrix(0.32750001549720764,0,0,0.32750001549720764,0,0)" fill="rgba(245, 125, 0, 0.414)" d="M84.717,33.597c0.791-2.503,1.186-5.138,1.186-7.773C85.903,11.594,74.308,0,60.079,0 c-9.881,0-18.445,5.534-22.793,13.702c-1.581-0.527-3.426-0.791-5.138-0.791c-9.486,0-17.128,7.642-17.128,17.128 c0,1.186,0.132,2.372,0.395,3.426C6.719,34.783,0,42.424,0,51.515C0,61.66,8.169,69.829,18.314,69.829h63.373 C91.831,69.829,100,61.66,100,51.515C99.868,42.556,93.281,35.046,84.717,33.597z" style="fill:rgba(245, 125, 0, 0.416);transform:matrix(0.3275, 0, 0, 0.3275, 0, 0);;animation:none"></path></g>
<g transform="matrix(1,0,0,1,785.6776123046875,427.4932861328125)" style="transform:matrix(1, 0, 0, 1, 785.678, 427.493);;animation:none"><path transform="matrix(0.32750001549720764,0,0,0.32750001549720764,0,0)" fill="rgba(245, 125, 0, 0.414)" d="M84.717,33.597c0.791-2.503,1.186-5.138,1.186-7.773C85.903,11.594,74.308,0,60.079,0 c-9.881,0-18.445,5.534-22.793,13.702c-1.581-0.527-3.426-0.791-5.138-0.791c-9.486,0-17.128,7.642-17.128,17.128 c0,1.186,0.132,2.372,0.395,3.426C6.719,34.783,0,42.424,0,51.515C0,61.66,8.169,69.829,18.314,69.829h63.373 C91.831,69.829,100,61.66,100,51.515C99.868,42.556,93.281,35.046,84.717,33.597z" style="fill:rgba(245, 125, 0, 0.416);transform:matrix(0.3275, 0, 0, 0.3275, 0, 0);;animation:none"></path></g>
<g transform="matrix(1,0,0,1,632.7460327148438,873.484375)" style="transform:matrix(1, 0, 0, 1, 632.746, 873.484);;animation:none"><path transform="matrix(0.32750001549720764,0,0,0.32750001549720764,0,0)" fill="rgba(245, 125, 0, 0.414)" d="M84.717,33.597c0.791-2.503,1.186-5.138,1.186-7.773C85.903,11.594,74.308,0,60.079,0 c-9.881,0-18.445,5.534-22.793,13.702c-1.581-0.527-3.426-0.791-5.138-0.791c-9.486,0-17.128,7.642-17.128,17.128 c0,1.186,0.132,2.372,0.395,3.426C6.719,34.783,0,42.424,0,51.515C0,61.66,8.169,69.829,18.314,69.829h63.373 C91.831,69.829,100,61.66,100,51.515C99.868,42.556,93.281,35.046,84.717,33.597z" style="fill:rgba(245, 125, 0, 0.416);transform:matrix(0.3275, 0, 0, 0.3275, 0, 0);;animation:none"></path></g>
<g transform="matrix(1,0,0,1,2720.475341796875,219.11050415039062)" style="transform:matrix(1, 0, 0, 1, 2720.48, 219.111);;animation:none"><path transform="matrix(0.32750001549720764,0,0,0.32750001549720764,0,0)" fill="rgba(245, 125, 0, 0.414)" d="M84.717,33.597c0.791-2.503,1.186-5.138,1.186-7.773C85.903,11.594,74.308,0,60.079,0 c-9.881,0-18.445,5.534-22.793,13.702c-1.581-0.527-3.426-0.791-5.138-0.791c-9.486,0-17.128,7.642-17.128,17.128 c0,1.186,0.132,2.372,0.395,3.426C6.719,34.783,0,42.424,0,51.515C0,61.66,8.169,69.829,18.314,69.829h63.373 C91.831,69.829,100,61.66,100,51.515C99.868,42.556,93.281,35.046,84.717,33.597z" style="fill:rgba(245, 125, 0, 0.416);transform:matrix(0.3275, 0, 0, 0.3275, 0, 0);;animation:none"></path></g>
<g transform="matrix(1,0,0,1,1182.7659912109375,917.7022094726562)" style="transform:matrix(1, 0, 0, 1, 1182.77, 917.702);;animation:none"><path transform="matrix(0.32750001549720764,0,0,0.32750001549720764,0,0)" fill="rgba(245, 125, 0, 0.414)" d="M84.717,33.597c0.791-2.503,1.186-5.138,1.186-7.773C85.903,11.594,74.308,0,60.079,0 c-9.881,0-18.445,5.534-22.793,13.702c-1.581-0.527-3.426-0.791-5.138-0.791c-9.486,0-17.128,7.642-17.128,17.128 c0,1.186,0.132,2.372,0.395,3.426C6.719,34.783,0,42.424,0,51.515C0,61.66,8.169,69.829,18.314,69.829h63.373 C91.831,69.829,100,61.66,100,51.515C99.868,42.556,93.281,35.046,84.717,33.597z" style="fill:rgba(245, 125, 0, 0.416);transform:matrix(0.3275, 0, 0, 0.3275, 0, 0);;animation:none"></path></g>
<g transform="matrix(1,0,0,1,2519.604736328125,208.7865753173828)" style="transform:matrix(1, 0, 0, 1, 2519.6, 208.787);;animation:none"><path transform="matrix(0.32750001549720764,0,0,0.32750001549720764,0,0)" fill="rgba(245, 125, 0, 0.414)" d="M84.717,33.597c0.791-2.503,1.186-5.138,1.186-7.773C85.903,11.594,74.308,0,60.079,0 c-9.881,0-18.445,5.534-22.793,13.702c-1.581-0.527-3.426-0.791-5.138-0.791c-9.486,0-17.128,7.642-17.128,17.128 c0,1.186,0.132,2.372,0.395,3.426C6.719,34.783,0,42.424,0,51.515C0,61.66,8.169,69.829,18.314,69.829h63.373 C91.831,69.829,100,61.66,100,51.515C99.868,42.556,93.281,35.046,84.717,33.597z" style="fill:rgba(245, 125, 0, 0.416);transform:matrix(0.3275, 0, 0, 0.3275, 0, 0);;animation:none"></path></g>
<g transform="matrix(1,0,0,1,1815.8040771484375,340.9858093261719)" style="transform:matrix(1, 0, 0, 1, 1815.8, 340.986);;animation:none"><path transform="matrix(0.32750001549720764,0,0,0.32750001549720764,0,0)" fill="rgba(245, 125, 0, 0.414)" d="M84.717,33.597c0.791-2.503,1.186-5.138,1.186-7.773C85.903,11.594,74.308,0,60.079,0 c-9.881,0-18.445,5.534-22.793,13.702c-1.581-0.527-3.426-0.791-5.138-0.791c-9.486,0-17.128,7.642-17.128,17.128 c0,1.186,0.132,2.372,0.395,3.426C6.719,34.783,0,42.424,0,51.515C0,61.66,8.169,69.829,18.314,69.829h63.373 C91.831,69.829,100,61.66,100,51.515C99.868,42.556,93.281,35.046,84.717,33.597z" style="fill:rgba(245, 125, 0, 0.416);transform:matrix(0.3275, 0, 0, 0.3275, 0, 0);;animation:none"></path></g>
<g transform="matrix(1,0,0,1,2398.016357421875,925.564453125)" style="transform:matrix(1, 0, 0, 1, 2398.02, 925.564);;animation:none"><path transform="matrix(0.32750001549720764,0,0,0.32750001549720764,0,0)" fill="rgba(245, 125, 0, 0.414)" d="M84.717,33.597c0.791-2.503,1.186-5.138,1.186-7.773C85.903,11.594,74.308,0,60.079,0 c-9.881,0-18.445,5.534-22.793,13.702c-1.581-0.527-3.426-0.791-5.138-0.791c-9.486,0-17.128,7.642-17.128,17.128 c0,1.186,0.132,2.372,0.395,3.426C6.719,34.783,0,42.424,0,51.515C0,61.66,8.169,69.829,18.314,69.829h63.373 C91.831,69.829,100,61.66,100,51.515C99.868,42.556,93.281,35.046,84.717,33.597z" style="fill:rgba(245, 125, 0, 0.416);transform:matrix(0.3275, 0, 0, 0.3275, 0, 0);;animation:none"></path></g>
<g transform="matrix(1,0,0,1,-53.79471206665039,599.2154541015625)" style="transform:matrix(1, 0, 0, 1, -53.7947, 599.215);;animation:none"><path transform="matrix(0.32750001549720764,0,0,0.32750001549720764,0,0)" fill="rgba(245, 125, 0, 0.414)" d="M84.717,33.597c0.791-2.503,1.186-5.138,1.186-7.773C85.903,11.594,74.308,0,60.079,0 c-9.881,0-18.445,5.534-22.793,13.702c-1.581-0.527-3.426-0.791-5.138-0.791c-9.486,0-17.128,7.642-17.128,17.128 c0,1.186,0.132,2.372,0.395,3.426C6.719,34.783,0,42.424,0,51.515C0,61.66,8.169,69.829,18.314,69.829h63.373 C91.831,69.829,100,61.66,100,51.515C99.868,42.556,93.281,35.046,84.717,33.597z" style="fill:rgba(245, 125, 0, 0.416);transform:matrix(0.3275, 0, 0, 0.3275, 0, 0);;animation:none"></path></g>
<g transform="matrix(1,0,0,1,1866.5089111328125,177.21188354492188)" style="transform:matrix(1, 0, 0, 1, 1866.51, 177.212);;animation:none"><path transform="matrix(0.32750001549720764,0,0,0.32750001549720764,0,0)" fill="rgba(245, 125, 0, 0.414)" d="M84.717,33.597c0.791-2.503,1.186-5.138,1.186-7.773C85.903,11.594,74.308,0,60.079,0 c-9.881,0-18.445,5.534-22.793,13.702c-1.581-0.527-3.426-0.791-5.138-0.791c-9.486,0-17.128,7.642-17.128,17.128 c0,1.186,0.132,2.372,0.395,3.426C6.719,34.783,0,42.424,0,51.515C0,61.66,8.169,69.829,18.314,69.829h63.373 C91.831,69.829,100,61.66,100,51.515C99.868,42.556,93.281,35.046,84.717,33.597z" style="fill:rgba(245, 125, 0, 0.416);transform:matrix(0.3275, 0, 0, 0.3275, 0, 0);;animation:none"></path></g>
<g transform="matrix(1,0,0,1,579.384033203125,741.2025756835938)" style="transform:matrix(1, 0, 0, 1, 579.384, 741.203);;animation:none"><path transform="matrix(0.32750001549720764,0,0,0.32750001549720764,0,0)" fill="rgba(245, 125, 0, 0.414)" d="M84.717,33.597c0.791-2.503,1.186-5.138,1.186-7.773C85.903,11.594,74.308,0,60.079,0 c-9.881,0-18.445,5.534-22.793,13.702c-1.581-0.527-3.426-0.791-5.138-0.791c-9.486,0-17.128,7.642-17.128,17.128 c0,1.186,0.132,2.372,0.395,3.426C6.719,34.783,0,42.424,0,51.515C0,61.66,8.169,69.829,18.314,69.829h63.373 C91.831,69.829,100,61.66,100,51.515C99.868,42.556,93.281,35.046,84.717,33.597z" style="fill:rgba(245, 125, 0, 0.416);transform:matrix(0.3275, 0, 0, 0.3275, 0, 0);;animation:none"></path></g>
<g transform="matrix(1,0,0,1,1373.044677734375,482.4799499511719)" style="transform:matrix(1, 0, 0, 1, 1373.04, 482.48);;animation:none"><path transform="matrix(0.32750001549720764,0,0,0.32750001549720764,0,0)" fill="rgba(245, 125, 0, 0.414)" d="M84.717,33.597c0.791-2.503,1.186-5.138,1.186-7.773C85.903,11.594,74.308,0,60.079,0 c-9.881,0-18.445,5.534-22.793,13.702c-1.581-0.527-3.426-0.791-5.138-0.791c-9.486,0-17.128,7.642-17.128,17.128 c0,1.186,0.132,2.372,0.395,3.426C6.719,34.783,0,42.424,0,51.515C0,61.66,8.169,69.829,18.314,69.829h63.373 C91.831,69.829,100,61.66,100,51.515C99.868,42.556,93.281,35.046,84.717,33.597z" style="fill:rgba(245, 125, 0, 0.416);transform:matrix(0.3275, 0, 0, 0.3275, 0, 0);;animation:none"></path></g>
<g transform="matrix(1,0,0,1,2543.642822265625,976.6834716796875)" style="transform:matrix(1, 0, 0, 1, 2543.64, 976.683);;animation:none"><path transform="matrix(0.32750001549720764,0,0,0.32750001549720764,0,0)" fill="rgba(245, 125, 0, 0.414)" d="M84.717,33.597c0.791-2.503,1.186-5.138,1.186-7.773C85.903,11.594,74.308,0,60.079,0 c-9.881,0-18.445,5.534-22.793,13.702c-1.581-0.527-3.426-0.791-5.138-0.791c-9.486,0-17.128,7.642-17.128,17.128 c0,1.186,0.132,2.372,0.395,3.426C6.719,34.783,0,42.424,0,51.515C0,61.66,8.169,69.829,18.314,69.829h63.373 C91.831,69.829,100,61.66,100,51.515C99.868,42.556,93.281,35.046,84.717,33.597z" style="fill:rgba(245, 125, 0, 0.416);transform:matrix(0.3275, 0, 0, 0.3275, 0, 0);;animation:none"></path></g>
<g transform="matrix(1,0,0,1,2330.058349609375,685.6782836914062)" style="transform:matrix(1, 0, 0, 1, 2330.06, 685.678);;animation:none"><path transform="matrix(0.32750001549720764,0,0,0.32750001549720764,0,0)" fill="rgba(245, 125, 0, 0.414)" d="M84.717,33.597c0.791-2.503,1.186-5.138,1.186-7.773C85.903,11.594,74.308,0,60.079,0 c-9.881,0-18.445,5.534-22.793,13.702c-1.581-0.527-3.426-0.791-5.138-0.791c-9.486,0-17.128,7.642-17.128,17.128 c0,1.186,0.132,2.372,0.395,3.426C6.719,34.783,0,42.424,0,51.515C0,61.66,8.169,69.829,18.314,69.829h63.373 C91.831,69.829,100,61.66,100,51.515C99.868,42.556,93.281,35.046,84.717,33.597z" style="fill:rgba(245, 125, 0, 0.416);transform:matrix(0.3275, 0, 0, 0.3275, 0, 0);;animation:none"></path></g>
<g transform="matrix(1,0,0,1,2743.250732421875,354.7475280761719)" style="transform:matrix(1, 0, 0, 1, 2743.25, 354.748);;animation:none"><path transform="matrix(0.32750001549720764,0,0,0.32750001549720764,0,0)" fill="rgba(245, 125, 0, 0.414)" d="M84.717,33.597c0.791-2.503,1.186-5.138,1.186-7.773C85.903,11.594,74.308,0,60.079,0 c-9.881,0-18.445,5.534-22.793,13.702c-1.581-0.527-3.426-0.791-5.138-0.791c-9.486,0-17.128,7.642-17.128,17.128 c0,1.186,0.132,2.372,0.395,3.426C6.719,34.783,0,42.424,0,51.515C0,61.66,8.169,69.829,18.314,69.829h63.373 C91.831,69.829,100,61.66,100,51.515C99.868,42.556,93.281,35.046,84.717,33.597z" style="fill:rgba(245, 125, 0, 0.416);transform:matrix(0.3275, 0, 0, 0.3275, 0, 0);;animation:none"></path></g>
<g transform="matrix(1,0,0,1,2000.574951171875,333.2099304199219)" style="transform:matrix(1, 0, 0, 1, 2000.57, 333.21);;animation:none"><path transform="matrix(0.32750001549720764,0,0,0.32750001549720764,0,0)" fill="rgba(245, 125, 0, 0.414)" d="M84.717,33.597c0.791-2.503,1.186-5.138,1.186-7.773C85.903,11.594,74.308,0,60.079,0 c-9.881,0-18.445,5.534-22.793,13.702c-1.581-0.527-3.426-0.791-5.138-0.791c-9.486,0-17.128,7.642-17.128,17.128 c0,1.186,0.132,2.372,0.395,3.426C6.719,34.783,0,42.424,0,51.515C0,61.66,8.169,69.829,18.314,69.829h63.373 C91.831,69.829,100,61.66,100,51.515C99.868,42.556,93.281,35.046,84.717,33.597z" style="fill:rgba(245, 125, 0, 0.416);transform:matrix(0.3275, 0, 0, 0.3275, 0, 0);;animation:none"></path></g>
<g transform="matrix(1,0,0,1,2498.304443359375,73.25348663330078)" style="transform:matrix(1, 0, 0, 1, 2498.3, 73.2535);;animation:none"><path transform="matrix(0.32750001549720764,0,0,0.32750001549720764,0,0)" fill="rgba(245, 125, 0, 0.414)" d="M84.717,33.597c0.791-2.503,1.186-5.138,1.186-7.773C85.903,11.594,74.308,0,60.079,0 c-9.881,0-18.445,5.534-22.793,13.702c-1.581-0.527-3.426-0.791-5.138-0.791c-9.486,0-17.128,7.642-17.128,17.128 c0,1.186,0.132,2.372,0.395,3.426C6.719,34.783,0,42.424,0,51.515C0,61.66,8.169,69.829,18.314,69.829h63.373 C91.831,69.829,100,61.66,100,51.515C99.868,42.556,93.281,35.046,84.717,33.597z" style="fill:rgba(245, 125, 0, 0.416);transform:matrix(0.3275, 0, 0, 0.3275, 0, 0);;animation:none"></path></g>
<g transform="matrix(1,0,0,1,283.96319580078125,770.1697998046875)" style="transform:matrix(1, 0, 0, 1, 283.963, 770.17);;animation:none"><path transform="matrix(0.32750001549720764,0,0,0.32750001549720764,0,0)" fill="rgba(245, 125, 0, 0.414)" d="M84.717,33.597c0.791-2.503,1.186-5.138,1.186-7.773C85.903,11.594,74.308,0,60.079,0 c-9.881,0-18.445,5.534-22.793,13.702c-1.581-0.527-3.426-0.791-5.138-0.791c-9.486,0-17.128,7.642-17.128,17.128 c0,1.186,0.132,2.372,0.395,3.426C6.719,34.783,0,42.424,0,51.515C0,61.66,8.169,69.829,18.314,69.829h63.373 C91.831,69.829,100,61.66,100,51.515C99.868,42.556,93.281,35.046,84.717,33.597z" style="fill:rgba(245, 125, 0, 0.416);transform:matrix(0.3275, 0, 0, 0.3275, 0, 0);;animation:none"></path></g>
<g transform="matrix(1,0,0,1,2380.763671875,346.15338134765625)" style="transform:matrix(1, 0, 0, 1, 2380.76, 346.153);;animation:none"><path transform="matrix(0.32750001549720764,0,0,0.32750001549720764,0,0)" fill="rgba(245, 125, 0, 0.414)" d="M84.717,33.597c0.791-2.503,1.186-5.138,1.186-7.773C85.903,11.594,74.308,0,60.079,0 c-9.881,0-18.445,5.534-22.793,13.702c-1.581-0.527-3.426-0.791-5.138-0.791c-9.486,0-17.128,7.642-17.128,17.128 c0,1.186,0.132,2.372,0.395,3.426C6.719,34.783,0,42.424,0,51.515C0,61.66,8.169,69.829,18.314,69.829h63.373 C91.831,69.829,100,61.66,100,51.515C99.868,42.556,93.281,35.046,84.717,33.597z" style="fill:rgba(245, 125, 0, 0.416);transform:matrix(0.3275, 0, 0, 0.3275, 0, 0);;animation:none"></path></g>
<g transform="matrix(1,0,0,1,2007.11669921875,128.65359497070312)" style="transform:matrix(1, 0, 0, 1, 2007.12, 128.654);;animation:none"><path transform="matrix(0.32750001549720764,0,0,0.32750001549720764,0,0)" fill="rgba(245, 125, 0, 0.414)" d="M84.717,33.597c0.791-2.503,1.186-5.138,1.186-7.773C85.903,11.594,74.308,0,60.079,0 c-9.881,0-18.445,5.534-22.793,13.702c-1.581-0.527-3.426-0.791-5.138-0.791c-9.486,0-17.128,7.642-17.128,17.128 c0,1.186,0.132,2.372,0.395,3.426C6.719,34.783,0,42.424,0,51.515C0,61.66,8.169,69.829,18.314,69.829h63.373 C91.831,69.829,100,61.66,100,51.515C99.868,42.556,93.281,35.046,84.717,33.597z" style="fill:rgba(245, 125, 0, 0.416);transform:matrix(0.3275, 0, 0, 0.3275, 0, 0);;animation:none"></path></g>
<g transform="matrix(1,0,0,1,444.24560546875,327.1491394042969)" style="transform:matrix(1, 0, 0, 1, 444.246, 327.149);;animation:none"><path transform="matrix(0.32750001549720764,0,0,0.32750001549720764,0,0)" fill="rgba(245, 125, 0, 0.414)" d="M84.717,33.597c0.791-2.503,1.186-5.138,1.186-7.773C85.903,11.594,74.308,0,60.079,0 c-9.881,0-18.445,5.534-22.793,13.702c-1.581-0.527-3.426-0.791-5.138-0.791c-9.486,0-17.128,7.642-17.128,17.128 c0,1.186,0.132,2.372,0.395,3.426C6.719,34.783,0,42.424,0,51.515C0,61.66,8.169,69.829,18.314,69.829h63.373 C91.831,69.829,100,61.66,100,51.515C99.868,42.556,93.281,35.046,84.717,33.597z" style="fill:rgba(245, 125, 0, 0.416);transform:matrix(0.3275, 0, 0, 0.3275, 0, 0);;animation:none"></path></g>
<g transform="matrix(1,0,0,1,336.00653076171875,144.16627502441406)" style="transform:matrix(1, 0, 0, 1, 336.007, 144.166);;animation:none"><path transform="matrix(0.32750001549720764,0,0,0.32750001549720764,0,0)" fill="rgba(245, 125, 0, 0.414)" d="M84.717,33.597c0.791-2.503,1.186-5.138,1.186-7.773C85.903,11.594,74.308,0,60.079,0 c-9.881,0-18.445,5.534-22.793,13.702c-1.581-0.527-3.426-0.791-5.138-0.791c-9.486,0-17.128,7.642-17.128,17.128 c0,1.186,0.132,2.372,0.395,3.426C6.719,34.783,0,42.424,0,51.515C0,61.66,8.169,69.829,18.314,69.829h63.373 C91.831,69.829,100,61.66,100,51.515C99.868,42.556,93.281,35.046,84.717,33.597z" style="fill:rgba(245, 125, 0, 0.416);transform:matrix(0.3275, 0, 0, 0.3275, 0, 0);;animation:none"></path></g>
<g transform="matrix(1,0,0,1,1393.459716796875,525.5709228515625)" style="transform:matrix(1, 0, 0, 1, 1393.46, 525.571);;animation:none"><path transform="matrix(0.32750001549720764,0,0,0.32750001549720764,0,0)" fill="rgba(245, 125, 0, 0.414)" d="M84.717,33.597c0.791-2.503,1.186-5.138,1.186-7.773C85.903,11.594,74.308,0,60.079,0 c-9.881,0-18.445,5.534-22.793,13.702c-1.581-0.527-3.426-0.791-5.138-0.791c-9.486,0-17.128,7.642-17.128,17.128 c0,1.186,0.132,2.372,0.395,3.426C6.719,34.783,0,42.424,0,51.515C0,61.66,8.169,69.829,18.314,69.829h63.373 C91.831,69.829,100,61.66,100,51.515C99.868,42.556,93.281,35.046,84.717,33.597z" style="fill:rgba(245, 125, 0, 0.416);transform:matrix(0.3275, 0, 0, 0.3275, 0, 0);;animation:none"></path></g>
<g transform="matrix(1,0,0,1,724.3289794921875,396.30615234375)" style="transform:matrix(1, 0, 0, 1, 724.329, 396.306);;animation:none"><path transform="matrix(0.32750001549720764,0,0,0.32750001549720764,0,0)" fill="rgba(245, 125, 0, 0.414)" d="M84.717,33.597c0.791-2.503,1.186-5.138,1.186-7.773C85.903,11.594,74.308,0,60.079,0 c-9.881,0-18.445,5.534-22.793,13.702c-1.581-0.527-3.426-0.791-5.138-0.791c-9.486,0-17.128,7.642-17.128,17.128 c0,1.186,0.132,2.372,0.395,3.426C6.719,34.783,0,42.424,0,51.515C0,61.66,8.169,69.829,18.314,69.829h63.373 C91.831,69.829,100,61.66,100,51.515C99.868,42.556,93.281,35.046,84.717,33.597z" style="fill:rgba(245, 125, 0, 0.416);transform:matrix(0.3275, 0, 0, 0.3275, 0, 0);;animation:none"></path></g>
<g transform="matrix(1,0,0,1,952.5074462890625,972.1401977539062)" style="transform:matrix(1, 0, 0, 1, 952.507, 972.14);;animation:none"><path transform="matrix(0.3850000202655792,0,0,0.3850000202655792,0,0)" fill="rgba(245, 125, 0, 0.54)" d="M84.717,33.597c0.791-2.503,1.186-5.138,1.186-7.773C85.903,11.594,74.308,0,60.079,0 c-9.881,0-18.445,5.534-22.793,13.702c-1.581-0.527-3.426-0.791-5.138-0.791c-9.486,0-17.128,7.642-17.128,17.128 c0,1.186,0.132,2.372,0.395,3.426C6.719,34.783,0,42.424,0,51.515C0,61.66,8.169,69.829,18.314,69.829h63.373 C91.831,69.829,100,61.66,100,51.515C99.868,42.556,93.281,35.046,84.717,33.597z" style="fill:rgba(245, 125, 0, 0.54);transform:matrix(0.385, 0, 0, 0.385, 0, 0);;animation:none"></path></g>
<g transform="matrix(1,0,0,1,885.6751708984375,955.7533569335938)" style="transform:matrix(1, 0, 0, 1, 885.675, 955.753);;animation:none"><path transform="matrix(0.3850000202655792,0,0,0.3850000202655792,0,0)" fill="rgba(245, 125, 0, 0.54)" d="M84.717,33.597c0.791-2.503,1.186-5.138,1.186-7.773C85.903,11.594,74.308,0,60.079,0 c-9.881,0-18.445,5.534-22.793,13.702c-1.581-0.527-3.426-0.791-5.138-0.791c-9.486,0-17.128,7.642-17.128,17.128 c0,1.186,0.132,2.372,0.395,3.426C6.719,34.783,0,42.424,0,51.515C0,61.66,8.169,69.829,18.314,69.829h63.373 C91.831,69.829,100,61.66,100,51.515C99.868,42.556,93.281,35.046,84.717,33.597z" style="fill:rgba(245, 125, 0, 0.54);transform:matrix(0.385, 0, 0, 0.385, 0, 0);;animation:none"></path></g>
<g transform="matrix(1,0,0,1,2203.31884765625,334.4814758300781)" style="transform:matrix(1, 0, 0, 1, 2203.32, 334.481);;animation:none"><path transform="matrix(0.3850000202655792,0,0,0.3850000202655792,0,0)" fill="rgba(245, 125, 0, 0.54)" d="M84.717,33.597c0.791-2.503,1.186-5.138,1.186-7.773C85.903,11.594,74.308,0,60.079,0 c-9.881,0-18.445,5.534-22.793,13.702c-1.581-0.527-3.426-0.791-5.138-0.791c-9.486,0-17.128,7.642-17.128,17.128 c0,1.186,0.132,2.372,0.395,3.426C6.719,34.783,0,42.424,0,51.515C0,61.66,8.169,69.829,18.314,69.829h63.373 C91.831,69.829,100,61.66,100,51.515C99.868,42.556,93.281,35.046,84.717,33.597z" style="fill:rgba(245, 125, 0, 0.54);transform:matrix(0.385, 0, 0, 0.385, 0, 0);;animation:none"></path></g>
<g transform="matrix(1,0,0,1,1877.505126953125,606.10205078125)" style="transform:matrix(1, 0, 0, 1, 1877.51, 606.102);;animation:none"><path transform="matrix(0.3850000202655792,0,0,0.3850000202655792,0,0)" fill="rgba(245, 125, 0, 0.54)" d="M84.717,33.597c0.791-2.503,1.186-5.138,1.186-7.773C85.903,11.594,74.308,0,60.079,0 c-9.881,0-18.445,5.534-22.793,13.702c-1.581-0.527-3.426-0.791-5.138-0.791c-9.486,0-17.128,7.642-17.128,17.128 c0,1.186,0.132,2.372,0.395,3.426C6.719,34.783,0,42.424,0,51.515C0,61.66,8.169,69.829,18.314,69.829h63.373 C91.831,69.829,100,61.66,100,51.515C99.868,42.556,93.281,35.046,84.717,33.597z" style="fill:rgba(245, 125, 0, 0.54);transform:matrix(0.385, 0, 0, 0.385, 0, 0);;animation:none"></path></g>
<g transform="matrix(1,0,0,1,454.57373046875,732.7470092773438)" style="transform:matrix(1, 0, 0, 1, 454.574, 732.747);;animation:none"><path transform="matrix(0.3850000202655792,0,0,0.3850000202655792,0,0)" fill="rgba(245, 125, 0, 0.54)" d="M84.717,33.597c0.791-2.503,1.186-5.138,1.186-7.773C85.903,11.594,74.308,0,60.079,0 c-9.881,0-18.445,5.534-22.793,13.702c-1.581-0.527-3.426-0.791-5.138-0.791c-9.486,0-17.128,7.642-17.128,17.128 c0,1.186,0.132,2.372,0.395,3.426C6.719,34.783,0,42.424,0,51.515C0,61.66,8.169,69.829,18.314,69.829h63.373 C91.831,69.829,100,61.66,100,51.515C99.868,42.556,93.281,35.046,84.717,33.597z" style="fill:rgba(245, 125, 0, 0.54);transform:matrix(0.385, 0, 0, 0.385, 0, 0);;animation:none"></path></g>
<g transform="matrix(1,0,0,1,979.8326416015625,804.597900390625)" style="transform:matrix(1, 0, 0, 1, 979.833, 804.598);;animation:none"><path transform="matrix(0.3850000202655792,0,0,0.3850000202655792,0,0)" fill="rgba(245, 125, 0, 0.54)" d="M84.717,33.597c0.791-2.503,1.186-5.138,1.186-7.773C85.903,11.594,74.308,0,60.079,0 c-9.881,0-18.445,5.534-22.793,13.702c-1.581-0.527-3.426-0.791-5.138-0.791c-9.486,0-17.128,7.642-17.128,17.128 c0,1.186,0.132,2.372,0.395,3.426C6.719,34.783,0,42.424,0,51.515C0,61.66,8.169,69.829,18.314,69.829h63.373 C91.831,69.829,100,61.66,100,51.515C99.868,42.556,93.281,35.046,84.717,33.597z" style="fill:rgba(245, 125, 0, 0.54);transform:matrix(0.385, 0, 0, 0.385, 0, 0);;animation:none"></path></g>
<g transform="matrix(1,0,0,1,2398.75537109375,776.433837890625)" style="transform:matrix(1, 0, 0, 1, 2398.76, 776.434);;animation:none"><path transform="matrix(0.3850000202655792,0,0,0.3850000202655792,0,0)" fill="rgba(245, 125, 0, 0.54)" d="M84.717,33.597c0.791-2.503,1.186-5.138,1.186-7.773C85.903,11.594,74.308,0,60.079,0 c-9.881,0-18.445,5.534-22.793,13.702c-1.581-0.527-3.426-0.791-5.138-0.791c-9.486,0-17.128,7.642-17.128,17.128 c0,1.186,0.132,2.372,0.395,3.426C6.719,34.783,0,42.424,0,51.515C0,61.66,8.169,69.829,18.314,69.829h63.373 C91.831,69.829,100,61.66,100,51.515C99.868,42.556,93.281,35.046,84.717,33.597z" style="fill:rgba(245, 125, 0, 0.54);transform:matrix(0.385, 0, 0, 0.385, 0, 0);;animation:none"></path></g>
<g transform="matrix(1,0,0,1,2410.634033203125,45.43227005004883)" style="transform:matrix(1, 0, 0, 1, 2410.63, 45.4323);;animation:none"><path transform="matrix(0.3850000202655792,0,0,0.3850000202655792,0,0)" fill="rgba(245, 125, 0, 0.54)" d="M84.717,33.597c0.791-2.503,1.186-5.138,1.186-7.773C85.903,11.594,74.308,0,60.079,0 c-9.881,0-18.445,5.534-22.793,13.702c-1.581-0.527-3.426-0.791-5.138-0.791c-9.486,0-17.128,7.642-17.128,17.128 c0,1.186,0.132,2.372,0.395,3.426C6.719,34.783,0,42.424,0,51.515C0,61.66,8.169,69.829,18.314,69.829h63.373 C91.831,69.829,100,61.66,100,51.515C99.868,42.556,93.281,35.046,84.717,33.597z" style="fill:rgba(245, 125, 0, 0.54);transform:matrix(0.385, 0, 0, 0.385, 0, 0);;animation:none"></path></g>
<g transform="matrix(1,0,0,1,2308.632080078125,477.87225341796875)" style="transform:matrix(1, 0, 0, 1, 2308.63, 477.872);;animation:none"><path transform="matrix(0.3850000202655792,0,0,0.3850000202655792,0,0)" fill="rgba(245, 125, 0, 0.54)" d="M84.717,33.597c0.791-2.503,1.186-5.138,1.186-7.773C85.903,11.594,74.308,0,60.079,0 c-9.881,0-18.445,5.534-22.793,13.702c-1.581-0.527-3.426-0.791-5.138-0.791c-9.486,0-17.128,7.642-17.128,17.128 c0,1.186,0.132,2.372,0.395,3.426C6.719,34.783,0,42.424,0,51.515C0,61.66,8.169,69.829,18.314,69.829h63.373 C91.831,69.829,100,61.66,100,51.515C99.868,42.556,93.281,35.046,84.717,33.597z" style="fill:rgba(245, 125, 0, 0.54);transform:matrix(0.385, 0, 0, 0.385, 0, 0);;animation:none"></path></g>
<g transform="matrix(1,0,0,1,1216.354248046875,191.6524200439453)" style="transform:matrix(1, 0, 0, 1, 1216.35, 191.652);;animation:none"><path transform="matrix(0.3850000202655792,0,0,0.3850000202655792,0,0)" fill="rgba(245, 125, 0, 0.54)" d="M84.717,33.597c0.791-2.503,1.186-5.138,1.186-7.773C85.903,11.594,74.308,0,60.079,0 c-9.881,0-18.445,5.534-22.793,13.702c-1.581-0.527-3.426-0.791-5.138-0.791c-9.486,0-17.128,7.642-17.128,17.128 c0,1.186,0.132,2.372,0.395,3.426C6.719,34.783,0,42.424,0,51.515C0,61.66,8.169,69.829,18.314,69.829h63.373 C91.831,69.829,100,61.66,100,51.515C99.868,42.556,93.281,35.046,84.717,33.597z" style="fill:rgba(245, 125, 0, 0.54);transform:matrix(0.385, 0, 0, 0.385, 0, 0);;animation:none"></path></g>
<g transform="matrix(1,0,0,1,1924.803466796875,590.1176147460938)" style="transform:matrix(1, 0, 0, 1, 1924.8, 590.118);;animation:none"><path transform="matrix(0.3850000202655792,0,0,0.3850000202655792,0,0)" fill="rgba(245, 125, 0, 0.54)" d="M84.717,33.597c0.791-2.503,1.186-5.138,1.186-7.773C85.903,11.594,74.308,0,60.079,0 c-9.881,0-18.445,5.534-22.793,13.702c-1.581-0.527-3.426-0.791-5.138-0.791c-9.486,0-17.128,7.642-17.128,17.128 c0,1.186,0.132,2.372,0.395,3.426C6.719,34.783,0,42.424,0,51.515C0,61.66,8.169,69.829,18.314,69.829h63.373 C91.831,69.829,100,61.66,100,51.515C99.868,42.556,93.281,35.046,84.717,33.597z" style="fill:rgba(245, 125, 0, 0.54);transform:matrix(0.385, 0, 0, 0.385, 0, 0);;animation:none"></path></g>
<g transform="matrix(1,0,0,1,742.34765625,157.7322540283203)" style="transform:matrix(1, 0, 0, 1, 742.348, 157.732);;animation:none"><path transform="matrix(0.3850000202655792,0,0,0.3850000202655792,0,0)" fill="rgba(245, 125, 0, 0.54)" d="M84.717,33.597c0.791-2.503,1.186-5.138,1.186-7.773C85.903,11.594,74.308,0,60.079,0 c-9.881,0-18.445,5.534-22.793,13.702c-1.581-0.527-3.426-0.791-5.138-0.791c-9.486,0-17.128,7.642-17.128,17.128 c0,1.186,0.132,2.372,0.395,3.426C6.719,34.783,0,42.424,0,51.515C0,61.66,8.169,69.829,18.314,69.829h63.373 C91.831,69.829,100,61.66,100,51.515C99.868,42.556,93.281,35.046,84.717,33.597z" style="fill:rgba(245, 125, 0, 0.54);transform:matrix(0.385, 0, 0, 0.385, 0, 0);;animation:none"></path></g>
<g transform="matrix(1,0,0,1,1296.547607421875,683.7843017578125)" style="transform:matrix(1, 0, 0, 1, 1296.55, 683.784);;animation:none"><path transform="matrix(0.3850000202655792,0,0,0.3850000202655792,0,0)" fill="rgba(245, 125, 0, 0.54)" d="M84.717,33.597c0.791-2.503,1.186-5.138,1.186-7.773C85.903,11.594,74.308,0,60.079,0 c-9.881,0-18.445,5.534-22.793,13.702c-1.581-0.527-3.426-0.791-5.138-0.791c-9.486,0-17.128,7.642-17.128,17.128 c0,1.186,0.132,2.372,0.395,3.426C6.719,34.783,0,42.424,0,51.515C0,61.66,8.169,69.829,18.314,69.829h63.373 C91.831,69.829,100,61.66,100,51.515C99.868,42.556,93.281,35.046,84.717,33.597z" style="fill:rgba(245, 125, 0, 0.54);transform:matrix(0.385, 0, 0, 0.385, 0, 0);;animation:none"></path></g>
<g transform="matrix(1,0,0,1,254.93670654296875,413.7535705566406)" style="transform:matrix(1, 0, 0, 1, 254.937, 413.754);;animation:none"><path transform="matrix(0.3850000202655792,0,0,0.3850000202655792,0,0)" fill="rgba(245, 125, 0, 0.54)" d="M84.717,33.597c0.791-2.503,1.186-5.138,1.186-7.773C85.903,11.594,74.308,0,60.079,0 c-9.881,0-18.445,5.534-22.793,13.702c-1.581-0.527-3.426-0.791-5.138-0.791c-9.486,0-17.128,7.642-17.128,17.128 c0,1.186,0.132,2.372,0.395,3.426C6.719,34.783,0,42.424,0,51.515C0,61.66,8.169,69.829,18.314,69.829h63.373 C91.831,69.829,100,61.66,100,51.515C99.868,42.556,93.281,35.046,84.717,33.597z" style="fill:rgba(245, 125, 0, 0.54);transform:matrix(0.385, 0, 0, 0.385, 0, 0);;animation:none"></path></g>
<g transform="matrix(1,0,0,1,1956.419921875,569.7285766601562)" style="transform:matrix(1, 0, 0, 1, 1956.42, 569.729);;animation:none"><path transform="matrix(0.3850000202655792,0,0,0.3850000202655792,0,0)" fill="rgba(245, 125, 0, 0.54)" d="M84.717,33.597c0.791-2.503,1.186-5.138,1.186-7.773C85.903,11.594,74.308,0,60.079,0 c-9.881,0-18.445,5.534-22.793,13.702c-1.581-0.527-3.426-0.791-5.138-0.791c-9.486,0-17.128,7.642-17.128,17.128 c0,1.186,0.132,2.372,0.395,3.426C6.719,34.783,0,42.424,0,51.515C0,61.66,8.169,69.829,18.314,69.829h63.373 C91.831,69.829,100,61.66,100,51.515C99.868,42.556,93.281,35.046,84.717,33.597z" style="fill:rgba(245, 125, 0, 0.54);transform:matrix(0.385, 0, 0, 0.385, 0, 0);;animation:none"></path></g>
<g transform="matrix(1,0,0,1,2083.429443359375,722.8104858398438)" style="transform:matrix(1, 0, 0, 1, 2083.43, 722.81);;animation:none"><path transform="matrix(0.3850000202655792,0,0,0.3850000202655792,0,0)" fill="rgba(245, 125, 0, 0.54)" d="M84.717,33.597c0.791-2.503,1.186-5.138,1.186-7.773C85.903,11.594,74.308,0,60.079,0 c-9.881,0-18.445,5.534-22.793,13.702c-1.581-0.527-3.426-0.791-5.138-0.791c-9.486,0-17.128,7.642-17.128,17.128 c0,1.186,0.132,2.372,0.395,3.426C6.719,34.783,0,42.424,0,51.515C0,61.66,8.169,69.829,18.314,69.829h63.373 C91.831,69.829,100,61.66,100,51.515C99.868,42.556,93.281,35.046,84.717,33.597z" style="fill:rgba(245, 125, 0, 0.54);transform:matrix(0.385, 0, 0, 0.385, 0, 0);;animation:none"></path></g>
<g transform="matrix(1,0,0,1,1030.678955078125,890.9830932617188)" style="transform:matrix(1, 0, 0, 1, 1030.68, 890.983);;animation:none"><path transform="matrix(0.3850000202655792,0,0,0.3850000202655792,0,0)" fill="rgba(245, 125, 0, 0.54)" d="M84.717,33.597c0.791-2.503,1.186-5.138,1.186-7.773C85.903,11.594,74.308,0,60.079,0 c-9.881,0-18.445,5.534-22.793,13.702c-1.581-0.527-3.426-0.791-5.138-0.791c-9.486,0-17.128,7.642-17.128,17.128 c0,1.186,0.132,2.372,0.395,3.426C6.719,34.783,0,42.424,0,51.515C0,61.66,8.169,69.829,18.314,69.829h63.373 C91.831,69.829,100,61.66,100,51.515C99.868,42.556,93.281,35.046,84.717,33.597z" style="fill:rgba(245, 125, 0, 0.54);transform:matrix(0.385, 0, 0, 0.385, 0, 0);;animation:none"></path></g>
<g transform="matrix(1,0,0,1,1961.945068359375,910.3873901367188)" style="transform:matrix(1, 0, 0, 1, 1961.95, 910.387);;animation:none"><path transform="matrix(0.3850000202655792,0,0,0.3850000202655792,0,0)" fill="rgba(245, 125, 0, 0.54)" d="M84.717,33.597c0.791-2.503,1.186-5.138,1.186-7.773C85.903,11.594,74.308,0,60.079,0 c-9.881,0-18.445,5.534-22.793,13.702c-1.581-0.527-3.426-0.791-5.138-0.791c-9.486,0-17.128,7.642-17.128,17.128 c0,1.186,0.132,2.372,0.395,3.426C6.719,34.783,0,42.424,0,51.515C0,61.66,8.169,69.829,18.314,69.829h63.373 C91.831,69.829,100,61.66,100,51.515C99.868,42.556,93.281,35.046,84.717,33.597z" style="fill:rgba(245, 125, 0, 0.54);transform:matrix(0.385, 0, 0, 0.385, 0, 0);;animation:none"></path></g>
<g transform="matrix(1,0,0,1,1728.60400390625,75.2791748046875)" style="transform:matrix(1, 0, 0, 1, 1728.6, 75.2792);;animation:none"><path transform="matrix(0.3850000202655792,0,0,0.3850000202655792,0,0)" fill="rgba(245, 125, 0, 0.54)" d="M84.717,33.597c0.791-2.503,1.186-5.138,1.186-7.773C85.903,11.594,74.308,0,60.079,0 c-9.881,0-18.445,5.534-22.793,13.702c-1.581-0.527-3.426-0.791-5.138-0.791c-9.486,0-17.128,7.642-17.128,17.128 c0,1.186,0.132,2.372,0.395,3.426C6.719,34.783,0,42.424,0,51.515C0,61.66,8.169,69.829,18.314,69.829h63.373 C91.831,69.829,100,61.66,100,51.515C99.868,42.556,93.281,35.046,84.717,33.597z" style="fill:rgba(245, 125, 0, 0.54);transform:matrix(0.385, 0, 0, 0.385, 0, 0);;animation:none"></path></g>
<g transform="matrix(1,0,0,1,2848.140869140625,305.1553039550781)" style="transform:matrix(1, 0, 0, 1, 2848.14, 305.155);;animation:none"><path transform="matrix(0.3850000202655792,0,0,0.3850000202655792,0,0)" fill="rgba(245, 125, 0, 0.54)" d="M84.717,33.597c0.791-2.503,1.186-5.138,1.186-7.773C85.903,11.594,74.308,0,60.079,0 c-9.881,0-18.445,5.534-22.793,13.702c-1.581-0.527-3.426-0.791-5.138-0.791c-9.486,0-17.128,7.642-17.128,17.128 c0,1.186,0.132,2.372,0.395,3.426C6.719,34.783,0,42.424,0,51.515C0,61.66,8.169,69.829,18.314,69.829h63.373 C91.831,69.829,100,61.66,100,51.515C99.868,42.556,93.281,35.046,84.717,33.597z" style="fill:rgba(245, 125, 0, 0.54);transform:matrix(0.385, 0, 0, 0.385, 0, 0);;animation:none"></path></g>
<g transform="matrix(1,0,0,1,1244.841796875,466.9625244140625)" style="transform:matrix(1, 0, 0, 1, 1244.84, 466.963);;animation:none"><path transform="matrix(0.3850000202655792,0,0,0.3850000202655792,0,0)" fill="rgba(245, 125, 0, 0.54)" d="M84.717,33.597c0.791-2.503,1.186-5.138,1.186-7.773C85.903,11.594,74.308,0,60.079,0 c-9.881,0-18.445,5.534-22.793,13.702c-1.581-0.527-3.426-0.791-5.138-0.791c-9.486,0-17.128,7.642-17.128,17.128 c0,1.186,0.132,2.372,0.395,3.426C6.719,34.783,0,42.424,0,51.515C0,61.66,8.169,69.829,18.314,69.829h63.373 C91.831,69.829,100,61.66,100,51.515C99.868,42.556,93.281,35.046,84.717,33.597z" style="fill:rgba(245, 125, 0, 0.54);transform:matrix(0.385, 0, 0, 0.385, 0, 0);;animation:none"></path></g>
<g transform="matrix(1,0,0,1,-7.3099365234375,200.6844024658203)" style="transform:matrix(1, 0, 0, 1, -7.30994, 200.684);;animation:none"><path transform="matrix(0.3850000202655792,0,0,0.3850000202655792,0,0)" fill="rgba(245, 125, 0, 0.54)" d="M84.717,33.597c0.791-2.503,1.186-5.138,1.186-7.773C85.903,11.594,74.308,0,60.079,0 c-9.881,0-18.445,5.534-22.793,13.702c-1.581-0.527-3.426-0.791-5.138-0.791c-9.486,0-17.128,7.642-17.128,17.128 c0,1.186,0.132,2.372,0.395,3.426C6.719,34.783,0,42.424,0,51.515C0,61.66,8.169,69.829,18.314,69.829h63.373 C91.831,69.829,100,61.66,100,51.515C99.868,42.556,93.281,35.046,84.717,33.597z" style="fill:rgba(245, 125, 0, 0.54);transform:matrix(0.385, 0, 0, 0.385, 0, 0);;animation:none"></path></g>
<g transform="matrix(1,0,0,1,2601.736328125,297.23175048828125)" style="transform:matrix(1, 0, 0, 1, 2601.74, 297.232);;animation:none"><path transform="matrix(0.3850000202655792,0,0,0.3850000202655792,0,0)" fill="rgba(245, 125, 0, 0.54)" d="M84.717,33.597c0.791-2.503,1.186-5.138,1.186-7.773C85.903,11.594,74.308,0,60.079,0 c-9.881,0-18.445,5.534-22.793,13.702c-1.581-0.527-3.426-0.791-5.138-0.791c-9.486,0-17.128,7.642-17.128,17.128 c0,1.186,0.132,2.372,0.395,3.426C6.719,34.783,0,42.424,0,51.515C0,61.66,8.169,69.829,18.314,69.829h63.373 C91.831,69.829,100,61.66,100,51.515C99.868,42.556,93.281,35.046,84.717,33.597z" style="fill:rgba(245, 125, 0, 0.54);transform:matrix(0.385, 0, 0, 0.385, 0, 0);;animation:none"></path></g>
<g transform="matrix(1,0,0,1,167.79989624023438,850.138427734375)" style="transform:matrix(1, 0, 0, 1, 167.8, 850.138);;animation:none"><path transform="matrix(0.3850000202655792,0,0,0.3850000202655792,0,0)" fill="rgba(245, 125, 0, 0.54)" d="M84.717,33.597c0.791-2.503,1.186-5.138,1.186-7.773C85.903,11.594,74.308,0,60.079,0 c-9.881,0-18.445,5.534-22.793,13.702c-1.581-0.527-3.426-0.791-5.138-0.791c-9.486,0-17.128,7.642-17.128,17.128 c0,1.186,0.132,2.372,0.395,3.426C6.719,34.783,0,42.424,0,51.515C0,61.66,8.169,69.829,18.314,69.829h63.373 C91.831,69.829,100,61.66,100,51.515C99.868,42.556,93.281,35.046,84.717,33.597z" style="fill:rgba(245, 125, 0, 0.54);transform:matrix(0.385, 0, 0, 0.385, 0, 0);;animation:none"></path></g>
<g transform="matrix(1,0,0,1,467.430908203125,408.13385009765625)" style="transform:matrix(1, 0, 0, 1, 467.431, 408.134);;animation:none"><path transform="matrix(0.3850000202655792,0,0,0.3850000202655792,0,0)" fill="rgba(245, 125, 0, 0.54)" d="M84.717,33.597c0.791-2.503,1.186-5.138,1.186-7.773C85.903,11.594,74.308,0,60.079,0 c-9.881,0-18.445,5.534-22.793,13.702c-1.581-0.527-3.426-0.791-5.138-0.791c-9.486,0-17.128,7.642-17.128,17.128 c0,1.186,0.132,2.372,0.395,3.426C6.719,34.783,0,42.424,0,51.515C0,61.66,8.169,69.829,18.314,69.829h63.373 C91.831,69.829,100,61.66,100,51.515C99.868,42.556,93.281,35.046,84.717,33.597z" style="fill:rgba(245, 125, 0, 0.54);transform:matrix(0.385, 0, 0, 0.385, 0, 0);;animation:none"></path></g>
<g transform="matrix(1,0,0,1,2698.534423828125,433.2047119140625)" style="transform:matrix(1, 0, 0, 1, 2698.53, 433.205);;animation:none"><path transform="matrix(0.4424999952316284,0,0,0.4424999952316284,0,0)" fill="rgba(245, 125, 0, 0.104)" d="M84.717,33.597c0.791-2.503,1.186-5.138,1.186-7.773C85.903,11.594,74.308,0,60.079,0 c-9.881,0-18.445,5.534-22.793,13.702c-1.581-0.527-3.426-0.791-5.138-0.791c-9.486,0-17.128,7.642-17.128,17.128 c0,1.186,0.132,2.372,0.395,3.426C6.719,34.783,0,42.424,0,51.515C0,61.66,8.169,69.829,18.314,69.829h63.373 C91.831,69.829,100,61.66,100,51.515C99.868,42.556,93.281,35.046,84.717,33.597z" style="fill:rgba(245, 125, 0, 0.106);transform:matrix(0.4425, 0, 0, 0.4425, 0, 0);;animation:none"></path></g>
<g transform="matrix(1,0,0,1,481.55218505859375,480.5257263183594)" style="transform:matrix(1, 0, 0, 1, 481.552, 480.526);;animation:none"><path transform="matrix(0.4424999952316284,0,0,0.4424999952316284,0,0)" fill="rgba(245, 125, 0, 0.104)" d="M84.717,33.597c0.791-2.503,1.186-5.138,1.186-7.773C85.903,11.594,74.308,0,60.079,0 c-9.881,0-18.445,5.534-22.793,13.702c-1.581-0.527-3.426-0.791-5.138-0.791c-9.486,0-17.128,7.642-17.128,17.128 c0,1.186,0.132,2.372,0.395,3.426C6.719,34.783,0,42.424,0,51.515C0,61.66,8.169,69.829,18.314,69.829h63.373 C91.831,69.829,100,61.66,100,51.515C99.868,42.556,93.281,35.046,84.717,33.597z" style="fill:rgba(245, 125, 0, 0.106);transform:matrix(0.4425, 0, 0, 0.4425, 0, 0);;animation:none"></path></g>
<g transform="matrix(1,0,0,1,2673.858154296875,801.71875)" style="transform:matrix(1, 0, 0, 1, 2673.86, 801.719);;animation:none"><path transform="matrix(0.4424999952316284,0,0,0.4424999952316284,0,0)" fill="rgba(245, 125, 0, 0.104)" d="M84.717,33.597c0.791-2.503,1.186-5.138,1.186-7.773C85.903,11.594,74.308,0,60.079,0 c-9.881,0-18.445,5.534-22.793,13.702c-1.581-0.527-3.426-0.791-5.138-0.791c-9.486,0-17.128,7.642-17.128,17.128 c0,1.186,0.132,2.372,0.395,3.426C6.719,34.783,0,42.424,0,51.515C0,61.66,8.169,69.829,18.314,69.829h63.373 C91.831,69.829,100,61.66,100,51.515C99.868,42.556,93.281,35.046,84.717,33.597z" style="fill:rgba(245, 125, 0, 0.106);transform:matrix(0.4425, 0, 0, 0.4425, 0, 0);;animation:none"></path></g>
<g transform="matrix(1,0,0,1,722.1448364257812,730.0755004882812)" style="transform:matrix(1, 0, 0, 1, 722.145, 730.076);;animation:none"><path transform="matrix(0.4424999952316284,0,0,0.4424999952316284,0,0)" fill="rgba(245, 125, 0, 0.104)" d="M84.717,33.597c0.791-2.503,1.186-5.138,1.186-7.773C85.903,11.594,74.308,0,60.079,0 c-9.881,0-18.445,5.534-22.793,13.702c-1.581-0.527-3.426-0.791-5.138-0.791c-9.486,0-17.128,7.642-17.128,17.128 c0,1.186,0.132,2.372,0.395,3.426C6.719,34.783,0,42.424,0,51.515C0,61.66,8.169,69.829,18.314,69.829h63.373 C91.831,69.829,100,61.66,100,51.515C99.868,42.556,93.281,35.046,84.717,33.597z" style="fill:rgba(245, 125, 0, 0.106);transform:matrix(0.4425, 0, 0, 0.4425, 0, 0);;animation:none"></path></g>
<g transform="matrix(1,0,0,1,1436.2149658203125,470.72076416015625)" style="transform:matrix(1, 0, 0, 1, 1436.21, 470.721);;animation:none"><path transform="matrix(0.4424999952316284,0,0,0.4424999952316284,0,0)" fill="rgba(245, 125, 0, 0.104)" d="M84.717,33.597c0.791-2.503,1.186-5.138,1.186-7.773C85.903,11.594,74.308,0,60.079,0 c-9.881,0-18.445,5.534-22.793,13.702c-1.581-0.527-3.426-0.791-5.138-0.791c-9.486,0-17.128,7.642-17.128,17.128 c0,1.186,0.132,2.372,0.395,3.426C6.719,34.783,0,42.424,0,51.515C0,61.66,8.169,69.829,18.314,69.829h63.373 C91.831,69.829,100,61.66,100,51.515C99.868,42.556,93.281,35.046,84.717,33.597z" style="fill:rgba(245, 125, 0, 0.106);transform:matrix(0.4425, 0, 0, 0.4425, 0, 0);;animation:none"></path></g>
<g transform="matrix(1,0,0,1,2083.353515625,191.15859985351562)" style="transform:matrix(1, 0, 0, 1, 2083.35, 191.159);;animation:none"><path transform="matrix(0.4424999952316284,0,0,0.4424999952316284,0,0)" fill="rgba(245, 125, 0, 0.104)" d="M84.717,33.597c0.791-2.503,1.186-5.138,1.186-7.773C85.903,11.594,74.308,0,60.079,0 c-9.881,0-18.445,5.534-22.793,13.702c-1.581-0.527-3.426-0.791-5.138-0.791c-9.486,0-17.128,7.642-17.128,17.128 c0,1.186,0.132,2.372,0.395,3.426C6.719,34.783,0,42.424,0,51.515C0,61.66,8.169,69.829,18.314,69.829h63.373 C91.831,69.829,100,61.66,100,51.515C99.868,42.556,93.281,35.046,84.717,33.597z" style="fill:rgba(245, 125, 0, 0.106);transform:matrix(0.4425, 0, 0, 0.4425, 0, 0);;animation:none"></path></g>
<g transform="matrix(1,0,0,1,1932.909912109375,387.3534851074219)" style="transform:matrix(1, 0, 0, 1, 1932.91, 387.353);;animation:none"><path transform="matrix(0.4424999952316284,0,0,0.4424999952316284,0,0)" fill="rgba(245, 125, 0, 0.104)" d="M84.717,33.597c0.791-2.503,1.186-5.138,1.186-7.773C85.903,11.594,74.308,0,60.079,0 c-9.881,0-18.445,5.534-22.793,13.702c-1.581-0.527-3.426-0.791-5.138-0.791c-9.486,0-17.128,7.642-17.128,17.128 c0,1.186,0.132,2.372,0.395,3.426C6.719,34.783,0,42.424,0,51.515C0,61.66,8.169,69.829,18.314,69.829h63.373 C91.831,69.829,100,61.66,100,51.515C99.868,42.556,93.281,35.046,84.717,33.597z" style="fill:rgba(245, 125, 0, 0.106);transform:matrix(0.4425, 0, 0, 0.4425, 0, 0);;animation:none"></path></g>
<g transform="matrix(1,0,0,1,1068.6151123046875,32.3007926940918)" style="transform:matrix(1, 0, 0, 1, 1068.62, 32.3008);;animation:none"><path transform="matrix(0.4424999952316284,0,0,0.4424999952316284,0,0)" fill="rgba(245, 125, 0, 0.104)" d="M84.717,33.597c0.791-2.503,1.186-5.138,1.186-7.773C85.903,11.594,74.308,0,60.079,0 c-9.881,0-18.445,5.534-22.793,13.702c-1.581-0.527-3.426-0.791-5.138-0.791c-9.486,0-17.128,7.642-17.128,17.128 c0,1.186,0.132,2.372,0.395,3.426C6.719,34.783,0,42.424,0,51.515C0,61.66,8.169,69.829,18.314,69.829h63.373 C91.831,69.829,100,61.66,100,51.515C99.868,42.556,93.281,35.046,84.717,33.597z" style="fill:rgba(245, 125, 0, 0.106);transform:matrix(0.4425, 0, 0, 0.4425, 0, 0);;animation:none"></path></g>
<g transform="matrix(1,0,0,1,1359.578857421875,774.2577514648438)" style="transform:matrix(1, 0, 0, 1, 1359.58, 774.258);;animation:none"><path transform="matrix(0.4424999952316284,0,0,0.4424999952316284,0,0)" fill="rgba(245, 125, 0, 0.104)" d="M84.717,33.597c0.791-2.503,1.186-5.138,1.186-7.773C85.903,11.594,74.308,0,60.079,0 c-9.881,0-18.445,5.534-22.793,13.702c-1.581-0.527-3.426-0.791-5.138-0.791c-9.486,0-17.128,7.642-17.128,17.128 c0,1.186,0.132,2.372,0.395,3.426C6.719,34.783,0,42.424,0,51.515C0,61.66,8.169,69.829,18.314,69.829h63.373 C91.831,69.829,100,61.66,100,51.515C99.868,42.556,93.281,35.046,84.717,33.597z" style="fill:rgba(245, 125, 0, 0.106);transform:matrix(0.4425, 0, 0, 0.4425, 0, 0);;animation:none"></path></g>
<g transform="matrix(1,0,0,1,1887.4169921875,526.4105224609375)" style="transform:matrix(1, 0, 0, 1, 1887.42, 526.411);;animation:none"><path transform="matrix(0.4424999952316284,0,0,0.4424999952316284,0,0)" fill="rgba(245, 125, 0, 0.104)" d="M84.717,33.597c0.791-2.503,1.186-5.138,1.186-7.773C85.903,11.594,74.308,0,60.079,0 c-9.881,0-18.445,5.534-22.793,13.702c-1.581-0.527-3.426-0.791-5.138-0.791c-9.486,0-17.128,7.642-17.128,17.128 c0,1.186,0.132,2.372,0.395,3.426C6.719,34.783,0,42.424,0,51.515C0,61.66,8.169,69.829,18.314,69.829h63.373 C91.831,69.829,100,61.66,100,51.515C99.868,42.556,93.281,35.046,84.717,33.597z" style="fill:rgba(245, 125, 0, 0.106);transform:matrix(0.4425, 0, 0, 0.4425, 0, 0);;animation:none"></path></g>
<g transform="matrix(1,0,0,1,614.937255859375,675.2594604492188)" style="transform:matrix(1, 0, 0, 1, 614.937, 675.259);;animation:none"><path transform="matrix(0.4424999952316284,0,0,0.4424999952316284,0,0)" fill="rgba(245, 125, 0, 0.104)" d="M84.717,33.597c0.791-2.503,1.186-5.138,1.186-7.773C85.903,11.594,74.308,0,60.079,0 c-9.881,0-18.445,5.534-22.793,13.702c-1.581-0.527-3.426-0.791-5.138-0.791c-9.486,0-17.128,7.642-17.128,17.128 c0,1.186,0.132,2.372,0.395,3.426C6.719,34.783,0,42.424,0,51.515C0,61.66,8.169,69.829,18.314,69.829h63.373 C91.831,69.829,100,61.66,100,51.515C99.868,42.556,93.281,35.046,84.717,33.597z" style="fill:rgba(245, 125, 0, 0.106);transform:matrix(0.4425, 0, 0, 0.4425, 0, 0);;animation:none"></path></g>
<g transform="matrix(1,0,0,1,1846.47607421875,205.7126922607422)" style="transform:matrix(1, 0, 0, 1, 1846.48, 205.713);;animation:none"><path transform="matrix(0.4424999952316284,0,0,0.4424999952316284,0,0)" fill="rgba(245, 125, 0, 0.104)" d="M84.717,33.597c0.791-2.503,1.186-5.138,1.186-7.773C85.903,11.594,74.308,0,60.079,0 c-9.881,0-18.445,5.534-22.793,13.702c-1.581-0.527-3.426-0.791-5.138-0.791c-9.486,0-17.128,7.642-17.128,17.128 c0,1.186,0.132,2.372,0.395,3.426C6.719,34.783,0,42.424,0,51.515C0,61.66,8.169,69.829,18.314,69.829h63.373 C91.831,69.829,100,61.66,100,51.515C99.868,42.556,93.281,35.046,84.717,33.597z" style="fill:rgba(245, 125, 0, 0.106);transform:matrix(0.4425, 0, 0, 0.4425, 0, 0);;animation:none"></path></g>
<g transform="matrix(1,0,0,1,1779.33935546875,197.4681396484375)" style="transform:matrix(1, 0, 0, 1, 1779.34, 197.468);;animation:none"><path transform="matrix(0.4424999952316284,0,0,0.4424999952316284,0,0)" fill="rgba(245, 125, 0, 0.104)" d="M84.717,33.597c0.791-2.503,1.186-5.138,1.186-7.773C85.903,11.594,74.308,0,60.079,0 c-9.881,0-18.445,5.534-22.793,13.702c-1.581-0.527-3.426-0.791-5.138-0.791c-9.486,0-17.128,7.642-17.128,17.128 c0,1.186,0.132,2.372,0.395,3.426C6.719,34.783,0,42.424,0,51.515C0,61.66,8.169,69.829,18.314,69.829h63.373 C91.831,69.829,100,61.66,100,51.515C99.868,42.556,93.281,35.046,84.717,33.597z" style="fill:rgba(245, 125, 0, 0.106);transform:matrix(0.4425, 0, 0, 0.4425, 0, 0);;animation:none"></path></g>
<g transform="matrix(1,0,0,1,41.680572509765625,367.3293762207031)" style="transform:matrix(1, 0, 0, 1, 41.6806, 367.329);;animation:none"><path transform="matrix(0.4424999952316284,0,0,0.4424999952316284,0,0)" fill="rgba(245, 125, 0, 0.104)" d="M84.717,33.597c0.791-2.503,1.186-5.138,1.186-7.773C85.903,11.594,74.308,0,60.079,0 c-9.881,0-18.445,5.534-22.793,13.702c-1.581-0.527-3.426-0.791-5.138-0.791c-9.486,0-17.128,7.642-17.128,17.128 c0,1.186,0.132,2.372,0.395,3.426C6.719,34.783,0,42.424,0,51.515C0,61.66,8.169,69.829,18.314,69.829h63.373 C91.831,69.829,100,61.66,100,51.515C99.868,42.556,93.281,35.046,84.717,33.597z" style="fill:rgba(245, 125, 0, 0.106);transform:matrix(0.4425, 0, 0, 0.4425, 0, 0);;animation:none"></path></g>
<g transform="matrix(1,0,0,1,653.1026611328125,769.373046875)" style="transform:matrix(1, 0, 0, 1, 653.103, 769.373);;animation:none"><path transform="matrix(0.4424999952316284,0,0,0.4424999952316284,0,0)" fill="rgba(245, 125, 0, 0.104)" d="M84.717,33.597c0.791-2.503,1.186-5.138,1.186-7.773C85.903,11.594,74.308,0,60.079,0 c-9.881,0-18.445,5.534-22.793,13.702c-1.581-0.527-3.426-0.791-5.138-0.791c-9.486,0-17.128,7.642-17.128,17.128 c0,1.186,0.132,2.372,0.395,3.426C6.719,34.783,0,42.424,0,51.515C0,61.66,8.169,69.829,18.314,69.829h63.373 C91.831,69.829,100,61.66,100,51.515C99.868,42.556,93.281,35.046,84.717,33.597z" style="fill:rgba(245, 125, 0, 0.106);transform:matrix(0.4425, 0, 0, 0.4425, 0, 0);;animation:none"></path></g>
<g transform="matrix(1,0,0,1,1033.7166748046875,396.8529968261719)" style="transform:matrix(1, 0, 0, 1, 1033.72, 396.853);;animation:none"><path transform="matrix(0.4424999952316284,0,0,0.4424999952316284,0,0)" fill="rgba(245, 125, 0, 0.104)" d="M84.717,33.597c0.791-2.503,1.186-5.138,1.186-7.773C85.903,11.594,74.308,0,60.079,0 c-9.881,0-18.445,5.534-22.793,13.702c-1.581-0.527-3.426-0.791-5.138-0.791c-9.486,0-17.128,7.642-17.128,17.128 c0,1.186,0.132,2.372,0.395,3.426C6.719,34.783,0,42.424,0,51.515C0,61.66,8.169,69.829,18.314,69.829h63.373 C91.831,69.829,100,61.66,100,51.515C99.868,42.556,93.281,35.046,84.717,33.597z" style="fill:rgba(245, 125, 0, 0.106);transform:matrix(0.4425, 0, 0, 0.4425, 0, 0);;animation:none"></path></g>
<g transform="matrix(1,0,0,1,1538.9632568359375,517.7552490234375)" style="transform:matrix(1, 0, 0, 1, 1538.96, 517.755);;animation:none"><path transform="matrix(0.4424999952316284,0,0,0.4424999952316284,0,0)" fill="rgba(245, 125, 0, 0.104)" d="M84.717,33.597c0.791-2.503,1.186-5.138,1.186-7.773C85.903,11.594,74.308,0,60.079,0 c-9.881,0-18.445,5.534-22.793,13.702c-1.581-0.527-3.426-0.791-5.138-0.791c-9.486,0-17.128,7.642-17.128,17.128 c0,1.186,0.132,2.372,0.395,3.426C6.719,34.783,0,42.424,0,51.515C0,61.66,8.169,69.829,18.314,69.829h63.373 C91.831,69.829,100,61.66,100,51.515C99.868,42.556,93.281,35.046,84.717,33.597z" style="fill:rgba(245, 125, 0, 0.106);transform:matrix(0.4425, 0, 0, 0.4425, 0, 0);;animation:none"></path></g>
<g transform="matrix(1,0,0,1,1568.267333984375,453.61651611328125)" style="transform:matrix(1, 0, 0, 1, 1568.27, 453.617);;animation:none"><path transform="matrix(0.4424999952316284,0,0,0.4424999952316284,0,0)" fill="rgba(245, 125, 0, 0.104)" d="M84.717,33.597c0.791-2.503,1.186-5.138,1.186-7.773C85.903,11.594,74.308,0,60.079,0 c-9.881,0-18.445,5.534-22.793,13.702c-1.581-0.527-3.426-0.791-5.138-0.791c-9.486,0-17.128,7.642-17.128,17.128 c0,1.186,0.132,2.372,0.395,3.426C6.719,34.783,0,42.424,0,51.515C0,61.66,8.169,69.829,18.314,69.829h63.373 C91.831,69.829,100,61.66,100,51.515C99.868,42.556,93.281,35.046,84.717,33.597z" style="fill:rgba(245, 125, 0, 0.106);transform:matrix(0.4425, 0, 0, 0.4425, 0, 0);;animation:none"></path></g>
<g transform="matrix(1,0,0,1,1881.4410400390625,70.89376831054688)" style="transform:matrix(1, 0, 0, 1, 1881.44, 70.8938);;animation:none"><path transform="matrix(0.4424999952316284,0,0,0.4424999952316284,0,0)" fill="rgba(245, 125, 0, 0.104)" d="M84.717,33.597c0.791-2.503,1.186-5.138,1.186-7.773C85.903,11.594,74.308,0,60.079,0 c-9.881,0-18.445,5.534-22.793,13.702c-1.581-0.527-3.426-0.791-5.138-0.791c-9.486,0-17.128,7.642-17.128,17.128 c0,1.186,0.132,2.372,0.395,3.426C6.719,34.783,0,42.424,0,51.515C0,61.66,8.169,69.829,18.314,69.829h63.373 C91.831,69.829,100,61.66,100,51.515C99.868,42.556,93.281,35.046,84.717,33.597z" style="fill:rgba(245, 125, 0, 0.106);transform:matrix(0.4425, 0, 0, 0.4425, 0, 0);;animation:none"></path></g>
<g transform="matrix(1,0,0,1,1381.3978271484375,884.4248046875)" style="transform:matrix(1, 0, 0, 1, 1381.4, 884.425);;animation:none"><path transform="matrix(0.4424999952316284,0,0,0.4424999952316284,0,0)" fill="rgba(245, 125, 0, 0.104)" d="M84.717,33.597c0.791-2.503,1.186-5.138,1.186-7.773C85.903,11.594,74.308,0,60.079,0 c-9.881,0-18.445,5.534-22.793,13.702c-1.581-0.527-3.426-0.791-5.138-0.791c-9.486,0-17.128,7.642-17.128,17.128 c0,1.186,0.132,2.372,0.395,3.426C6.719,34.783,0,42.424,0,51.515C0,61.66,8.169,69.829,18.314,69.829h63.373 C91.831,69.829,100,61.66,100,51.515C99.868,42.556,93.281,35.046,84.717,33.597z" style="fill:rgba(245, 125, 0, 0.106);transform:matrix(0.4425, 0, 0, 0.4425, 0, 0);;animation:none"></path></g>
<g transform="matrix(1,0,0,1,1746.2803955078125,162.3743438720703)" style="transform:matrix(1, 0, 0, 1, 1746.28, 162.374);;animation:none"><path transform="matrix(0.4424999952316284,0,0,0.4424999952316284,0,0)" fill="rgba(245, 125, 0, 0.104)" d="M84.717,33.597c0.791-2.503,1.186-5.138,1.186-7.773C85.903,11.594,74.308,0,60.079,0 c-9.881,0-18.445,5.534-22.793,13.702c-1.581-0.527-3.426-0.791-5.138-0.791c-9.486,0-17.128,7.642-17.128,17.128 c0,1.186,0.132,2.372,0.395,3.426C6.719,34.783,0,42.424,0,51.515C0,61.66,8.169,69.829,18.314,69.829h63.373 C91.831,69.829,100,61.66,100,51.515C99.868,42.556,93.281,35.046,84.717,33.597z" style="fill:rgba(245, 125, 0, 0.106);transform:matrix(0.4425, 0, 0, 0.4425, 0, 0);;animation:none"></path></g>
<g transform="matrix(1,0,0,1,2693.07568359375,425.8922119140625)" style="transform:matrix(1, 0, 0, 1, 2693.08, 425.892);;animation:none"><path transform="matrix(0.4424999952316284,0,0,0.4424999952316284,0,0)" fill="rgba(245, 125, 0, 0.104)" d="M84.717,33.597c0.791-2.503,1.186-5.138,1.186-7.773C85.903,11.594,74.308,0,60.079,0 c-9.881,0-18.445,5.534-22.793,13.702c-1.581-0.527-3.426-0.791-5.138-0.791c-9.486,0-17.128,7.642-17.128,17.128 c0,1.186,0.132,2.372,0.395,3.426C6.719,34.783,0,42.424,0,51.515C0,61.66,8.169,69.829,18.314,69.829h63.373 C91.831,69.829,100,61.66,100,51.515C99.868,42.556,93.281,35.046,84.717,33.597z" style="fill:rgba(245, 125, 0, 0.106);transform:matrix(0.4425, 0, 0, 0.4425, 0, 0);;animation:none"></path></g>
<g transform="matrix(1,0,0,1,1350.197998046875,141.62881469726562)" style="transform:matrix(1, 0, 0, 1, 1350.2, 141.629);;animation:none"><path transform="matrix(0.4424999952316284,0,0,0.4424999952316284,0,0)" fill="rgba(245, 125, 0, 0.104)" d="M84.717,33.597c0.791-2.503,1.186-5.138,1.186-7.773C85.903,11.594,74.308,0,60.079,0 c-9.881,0-18.445,5.534-22.793,13.702c-1.581-0.527-3.426-0.791-5.138-0.791c-9.486,0-17.128,7.642-17.128,17.128 c0,1.186,0.132,2.372,0.395,3.426C6.719,34.783,0,42.424,0,51.515C0,61.66,8.169,69.829,18.314,69.829h63.373 C91.831,69.829,100,61.66,100,51.515C99.868,42.556,93.281,35.046,84.717,33.597z" style="fill:rgba(245, 125, 0, 0.106);transform:matrix(0.4425, 0, 0, 0.4425, 0, 0);;animation:none"></path></g>
<g transform="matrix(1,0,0,1,1075.8533935546875,789.202392578125)" style="transform:matrix(1, 0, 0, 1, 1075.85, 789.202);;animation:none"><path transform="matrix(0.4424999952316284,0,0,0.4424999952316284,0,0)" fill="rgba(245, 125, 0, 0.104)" d="M84.717,33.597c0.791-2.503,1.186-5.138,1.186-7.773C85.903,11.594,74.308,0,60.079,0 c-9.881,0-18.445,5.534-22.793,13.702c-1.581-0.527-3.426-0.791-5.138-0.791c-9.486,0-17.128,7.642-17.128,17.128 c0,1.186,0.132,2.372,0.395,3.426C6.719,34.783,0,42.424,0,51.515C0,61.66,8.169,69.829,18.314,69.829h63.373 C91.831,69.829,100,61.66,100,51.515C99.868,42.556,93.281,35.046,84.717,33.597z" style="fill:rgba(245, 125, 0, 0.106);transform:matrix(0.4425, 0, 0, 0.4425, 0, 0);;animation:none"></path></g>
<g transform="matrix(1,0,0,1,1779.595458984375,243.1450653076172)" style="transform:matrix(1, 0, 0, 1, 1779.6, 243.145);;animation:none"><path transform="matrix(0.4424999952316284,0,0,0.4424999952316284,0,0)" fill="rgba(245, 125, 0, 0.104)" d="M84.717,33.597c0.791-2.503,1.186-5.138,1.186-7.773C85.903,11.594,74.308,0,60.079,0 c-9.881,0-18.445,5.534-22.793,13.702c-1.581-0.527-3.426-0.791-5.138-0.791c-9.486,0-17.128,7.642-17.128,17.128 c0,1.186,0.132,2.372,0.395,3.426C6.719,34.783,0,42.424,0,51.515C0,61.66,8.169,69.829,18.314,69.829h63.373 C91.831,69.829,100,61.66,100,51.515C99.868,42.556,93.281,35.046,84.717,33.597z" style="fill:rgba(245, 125, 0, 0.106);transform:matrix(0.4425, 0, 0, 0.4425, 0, 0);;animation:none"></path></g>
<g transform="matrix(1,0,0,1,2344.86328125,589.4113159179688)" style="transform:matrix(1, 0, 0, 1, 2344.86, 589.411);;animation:none"><path transform="matrix(0.5,0,0,0.5,0,0)" fill="#f57d00" d="M84.717,33.597c0.791-2.503,1.186-5.138,1.186-7.773C85.903,11.594,74.308,0,60.079,0 c-9.881,0-18.445,5.534-22.793,13.702c-1.581-0.527-3.426-0.791-5.138-0.791c-9.486,0-17.128,7.642-17.128,17.128 c0,1.186,0.132,2.372,0.395,3.426C6.719,34.783,0,42.424,0,51.515C0,61.66,8.169,69.829,18.314,69.829h63.373 C91.831,69.829,100,61.66,100,51.515C99.868,42.556,93.281,35.046,84.717,33.597z" style="fill:rgb(245, 125, 0);transform:matrix(0.5, 0, 0, 0.5, 0, 0);;animation:none"></path></g>
<g transform="matrix(1,0,0,1,1129.90625,247.98497009277344)" style="transform:matrix(1, 0, 0, 1, 1129.91, 247.985);;animation:none"><path transform="matrix(0.5,0,0,0.5,0,0)" fill="#f57d00" d="M84.717,33.597c0.791-2.503,1.186-5.138,1.186-7.773C85.903,11.594,74.308,0,60.079,0 c-9.881,0-18.445,5.534-22.793,13.702c-1.581-0.527-3.426-0.791-5.138-0.791c-9.486,0-17.128,7.642-17.128,17.128 c0,1.186,0.132,2.372,0.395,3.426C6.719,34.783,0,42.424,0,51.515C0,61.66,8.169,69.829,18.314,69.829h63.373 C91.831,69.829,100,61.66,100,51.515C99.868,42.556,93.281,35.046,84.717,33.597z" style="fill:rgb(245, 125, 0);transform:matrix(0.5, 0, 0, 0.5, 0, 0);;animation:none"></path></g>
<g transform="matrix(1,0,0,1,2326.45703125,533.0943603515625)" style="transform:matrix(1, 0, 0, 1, 2326.46, 533.094);;animation:none"><path transform="matrix(0.5,0,0,0.5,0,0)" fill="#f57d00" d="M84.717,33.597c0.791-2.503,1.186-5.138,1.186-7.773C85.903,11.594,74.308,0,60.079,0 c-9.881,0-18.445,5.534-22.793,13.702c-1.581-0.527-3.426-0.791-5.138-0.791c-9.486,0-17.128,7.642-17.128,17.128 c0,1.186,0.132,2.372,0.395,3.426C6.719,34.783,0,42.424,0,51.515C0,61.66,8.169,69.829,18.314,69.829h63.373 C91.831,69.829,100,61.66,100,51.515C99.868,42.556,93.281,35.046,84.717,33.597z" style="fill:rgb(245, 125, 0);transform:matrix(0.5, 0, 0, 0.5, 0, 0);;animation:none"></path></g>
<g transform="matrix(1,0,0,1,-85.55330657958984,931.067138671875)" style="transform:matrix(1, 0, 0, 1, -85.5533, 931.067);;animation:none"><path transform="matrix(0.5,0,0,0.5,0,0)" fill="#f57d00" d="M84.717,33.597c0.791-2.503,1.186-5.138,1.186-7.773C85.903,11.594,74.308,0,60.079,0 c-9.881,0-18.445,5.534-22.793,13.702c-1.581-0.527-3.426-0.791-5.138-0.791c-9.486,0-17.128,7.642-17.128,17.128 c0,1.186,0.132,2.372,0.395,3.426C6.719,34.783,0,42.424,0,51.515C0,61.66,8.169,69.829,18.314,69.829h63.373 C91.831,69.829,100,61.66,100,51.515C99.868,42.556,93.281,35.046,84.717,33.597z" style="fill:rgb(245, 125, 0);transform:matrix(0.5, 0, 0, 0.5, 0, 0);;animation:none"></path></g>
<g transform="matrix(1,0,0,1,653.5364990234375,153.97268676757812)" style="transform:matrix(1, 0, 0, 1, 653.536, 153.973);;animation:none"><path transform="matrix(0.5,0,0,0.5,0,0)" fill="#f57d00" d="M84.717,33.597c0.791-2.503,1.186-5.138,1.186-7.773C85.903,11.594,74.308,0,60.079,0 c-9.881,0-18.445,5.534-22.793,13.702c-1.581-0.527-3.426-0.791-5.138-0.791c-9.486,0-17.128,7.642-17.128,17.128 c0,1.186,0.132,2.372,0.395,3.426C6.719,34.783,0,42.424,0,51.515C0,61.66,8.169,69.829,18.314,69.829h63.373 C91.831,69.829,100,61.66,100,51.515C99.868,42.556,93.281,35.046,84.717,33.597z" style="fill:rgb(245, 125, 0);transform:matrix(0.5, 0, 0, 0.5, 0, 0);;animation:none"></path></g>
<g transform="matrix(1,0,0,1,2489.73193359375,171.6764678955078)" style="transform:matrix(1, 0, 0, 1, 2489.73, 171.676);;animation:none"><path transform="matrix(0.5,0,0,0.5,0,0)" fill="#f57d00" d="M84.717,33.597c0.791-2.503,1.186-5.138,1.186-7.773C85.903,11.594,74.308,0,60.079,0 c-9.881,0-18.445,5.534-22.793,13.702c-1.581-0.527-3.426-0.791-5.138-0.791c-9.486,0-17.128,7.642-17.128,17.128 c0,1.186,0.132,2.372,0.395,3.426C6.719,34.783,0,42.424,0,51.515C0,61.66,8.169,69.829,18.314,69.829h63.373 C91.831,69.829,100,61.66,100,51.515C99.868,42.556,93.281,35.046,84.717,33.597z" style="fill:rgb(245, 125, 0);transform:matrix(0.5, 0, 0, 0.5, 0, 0);;animation:none"></path></g>
<g transform="matrix(1,0,0,1,1420.7515869140625,933.63671875)" style="transform:matrix(1, 0, 0, 1, 1420.75, 933.637);;animation:none"><path transform="matrix(0.5,0,0,0.5,0,0)" fill="#f57d00" d="M84.717,33.597c0.791-2.503,1.186-5.138,1.186-7.773C85.903,11.594,74.308,0,60.079,0 c-9.881,0-18.445,5.534-22.793,13.702c-1.581-0.527-3.426-0.791-5.138-0.791c-9.486,0-17.128,7.642-17.128,17.128 c0,1.186,0.132,2.372,0.395,3.426C6.719,34.783,0,42.424,0,51.515C0,61.66,8.169,69.829,18.314,69.829h63.373 C91.831,69.829,100,61.66,100,51.515C99.868,42.556,93.281,35.046,84.717,33.597z" style="fill:rgb(245, 125, 0);transform:matrix(0.5, 0, 0, 0.5, 0, 0);;animation:none"></path></g>
<g transform="matrix(1,0,0,1,1470.4237060546875,567.6242065429688)" style="transform:matrix(1, 0, 0, 1, 1470.42, 567.624);;animation:none"><path transform="matrix(0.5,0,0,0.5,0,0)" fill="#f57d00" d="M84.717,33.597c0.791-2.503,1.186-5.138,1.186-7.773C85.903,11.594,74.308,0,60.079,0 c-9.881,0-18.445,5.534-22.793,13.702c-1.581-0.527-3.426-0.791-5.138-0.791c-9.486,0-17.128,7.642-17.128,17.128 c0,1.186,0.132,2.372,0.395,3.426C6.719,34.783,0,42.424,0,51.515C0,61.66,8.169,69.829,18.314,69.829h63.373 C91.831,69.829,100,61.66,100,51.515C99.868,42.556,93.281,35.046,84.717,33.597z" style="fill:rgb(245, 125, 0);transform:matrix(0.5, 0, 0, 0.5, 0, 0);;animation:none"></path></g>
<g transform="matrix(1,0,0,1,2368.889892578125,152.40574645996094)" style="transform:matrix(1, 0, 0, 1, 2368.89, 152.406);;animation:none"><path transform="matrix(0.5,0,0,0.5,0,0)" fill="#f57d00" d="M84.717,33.597c0.791-2.503,1.186-5.138,1.186-7.773C85.903,11.594,74.308,0,60.079,0 c-9.881,0-18.445,5.534-22.793,13.702c-1.581-0.527-3.426-0.791-5.138-0.791c-9.486,0-17.128,7.642-17.128,17.128 c0,1.186,0.132,2.372,0.395,3.426C6.719,34.783,0,42.424,0,51.515C0,61.66,8.169,69.829,18.314,69.829h63.373 C91.831,69.829,100,61.66,100,51.515C99.868,42.556,93.281,35.046,84.717,33.597z" style="fill:rgb(245, 125, 0);transform:matrix(0.5, 0, 0, 0.5, 0, 0);;animation:none"></path></g>
<g transform="matrix(1,0,0,1,877.0479125976562,121.8133316040039)" style="transform:matrix(1, 0, 0, 1, 877.048, 121.813);;animation:none"><path transform="matrix(0.5,0,0,0.5,0,0)" fill="#f57d00" d="M84.717,33.597c0.791-2.503,1.186-5.138,1.186-7.773C85.903,11.594,74.308,0,60.079,0 c-9.881,0-18.445,5.534-22.793,13.702c-1.581-0.527-3.426-0.791-5.138-0.791c-9.486,0-17.128,7.642-17.128,17.128 c0,1.186,0.132,2.372,0.395,3.426C6.719,34.783,0,42.424,0,51.515C0,61.66,8.169,69.829,18.314,69.829h63.373 C91.831,69.829,100,61.66,100,51.515C99.868,42.556,93.281,35.046,84.717,33.597z" style="fill:rgb(245, 125, 0);transform:matrix(0.5, 0, 0, 0.5, 0, 0);;animation:none"></path></g>
<g transform="matrix(1,0,0,1,1209.279052734375,474.8045349121094)" style="transform:matrix(1, 0, 0, 1, 1209.28, 474.805);;animation:none"><path transform="matrix(0.5,0,0,0.5,0,0)" fill="#f57d00" d="M84.717,33.597c0.791-2.503,1.186-5.138,1.186-7.773C85.903,11.594,74.308,0,60.079,0 c-9.881,0-18.445,5.534-22.793,13.702c-1.581-0.527-3.426-0.791-5.138-0.791c-9.486,0-17.128,7.642-17.128,17.128 c0,1.186,0.132,2.372,0.395,3.426C6.719,34.783,0,42.424,0,51.515C0,61.66,8.169,69.829,18.314,69.829h63.373 C91.831,69.829,100,61.66,100,51.515C99.868,42.556,93.281,35.046,84.717,33.597z" style="fill:rgb(245, 125, 0);transform:matrix(0.5, 0, 0, 0.5, 0, 0);;animation:none"></path></g>
<g transform="matrix(1,0,0,1,2619.693359375,817.1840209960938)" style="transform:matrix(1, 0, 0, 1, 2619.69, 817.184);;animation:none"><path transform="matrix(0.5,0,0,0.5,0,0)" fill="#f57d00" d="M84.717,33.597c0.791-2.503,1.186-5.138,1.186-7.773C85.903,11.594,74.308,0,60.079,0 c-9.881,0-18.445,5.534-22.793,13.702c-1.581-0.527-3.426-0.791-5.138-0.791c-9.486,0-17.128,7.642-17.128,17.128 c0,1.186,0.132,2.372,0.395,3.426C6.719,34.783,0,42.424,0,51.515C0,61.66,8.169,69.829,18.314,69.829h63.373 C91.831,69.829,100,61.66,100,51.515C99.868,42.556,93.281,35.046,84.717,33.597z" style="fill:rgb(245, 125, 0);transform:matrix(0.5, 0, 0, 0.5, 0, 0);;animation:none"></path></g>
<g transform="matrix(1,0,0,1,1375.378662109375,219.96041870117188)" style="transform:matrix(1, 0, 0, 1, 1375.38, 219.96);;animation:none"><path transform="matrix(0.5,0,0,0.5,0,0)" fill="#f57d00" d="M84.717,33.597c0.791-2.503,1.186-5.138,1.186-7.773C85.903,11.594,74.308,0,60.079,0 c-9.881,0-18.445,5.534-22.793,13.702c-1.581-0.527-3.426-0.791-5.138-0.791c-9.486,0-17.128,7.642-17.128,17.128 c0,1.186,0.132,2.372,0.395,3.426C6.719,34.783,0,42.424,0,51.515C0,61.66,8.169,69.829,18.314,69.829h63.373 C91.831,69.829,100,61.66,100,51.515C99.868,42.556,93.281,35.046,84.717,33.597z" style="fill:rgb(245, 125, 0);transform:matrix(0.5, 0, 0, 0.5, 0, 0);;animation:none"></path></g>
<g transform="matrix(1,0,0,1,2707.86181640625,88.3477554321289)" style="transform:matrix(1, 0, 0, 1, 2707.86, 88.3478);;animation:none"><path transform="matrix(0.5,0,0,0.5,0,0)" fill="#f57d00" d="M84.717,33.597c0.791-2.503,1.186-5.138,1.186-7.773C85.903,11.594,74.308,0,60.079,0 c-9.881,0-18.445,5.534-22.793,13.702c-1.581-0.527-3.426-0.791-5.138-0.791c-9.486,0-17.128,7.642-17.128,17.128 c0,1.186,0.132,2.372,0.395,3.426C6.719,34.783,0,42.424,0,51.515C0,61.66,8.169,69.829,18.314,69.829h63.373 C91.831,69.829,100,61.66,100,51.515C99.868,42.556,93.281,35.046,84.717,33.597z" style="fill:rgb(245, 125, 0);transform:matrix(0.5, 0, 0, 0.5, 0, 0);;animation:none"></path></g>
<g transform="matrix(1,0,0,1,864.5454711914062,251.32789611816406)" style="transform:matrix(1, 0, 0, 1, 864.545, 251.328);;animation:none"><path transform="matrix(0.5,0,0,0.5,0,0)" fill="#f57d00" d="M84.717,33.597c0.791-2.503,1.186-5.138,1.186-7.773C85.903,11.594,74.308,0,60.079,0 c-9.881,0-18.445,5.534-22.793,13.702c-1.581-0.527-3.426-0.791-5.138-0.791c-9.486,0-17.128,7.642-17.128,17.128 c0,1.186,0.132,2.372,0.395,3.426C6.719,34.783,0,42.424,0,51.515C0,61.66,8.169,69.829,18.314,69.829h63.373 C91.831,69.829,100,61.66,100,51.515C99.868,42.556,93.281,35.046,84.717,33.597z" style="fill:rgb(245, 125, 0);transform:matrix(0.5, 0, 0, 0.5, 0, 0);;animation:none"></path></g>
<g transform="matrix(1,0,0,1,-67.42048645019531,894.7366333007812)" style="transform:matrix(1, 0, 0, 1, -67.4205, 894.737);;animation:none"><path transform="matrix(0.5,0,0,0.5,0,0)" fill="#f57d00" d="M84.717,33.597c0.791-2.503,1.186-5.138,1.186-7.773C85.903,11.594,74.308,0,60.079,0 c-9.881,0-18.445,5.534-22.793,13.702c-1.581-0.527-3.426-0.791-5.138-0.791c-9.486,0-17.128,7.642-17.128,17.128 c0,1.186,0.132,2.372,0.395,3.426C6.719,34.783,0,42.424,0,51.515C0,61.66,8.169,69.829,18.314,69.829h63.373 C91.831,69.829,100,61.66,100,51.515C99.868,42.556,93.281,35.046,84.717,33.597z" style="fill:rgb(245, 125, 0);transform:matrix(0.5, 0, 0, 0.5, 0, 0);;animation:none"></path></g>
<g transform="matrix(1,0,0,1,2339.682861328125,382.0638732910156)" style="transform:matrix(1, 0, 0, 1, 2339.68, 382.064);;animation:none"><path transform="matrix(0.5,0,0,0.5,0,0)" fill="#f57d00" d="M84.717,33.597c0.791-2.503,1.186-5.138,1.186-7.773C85.903,11.594,74.308,0,60.079,0 c-9.881,0-18.445,5.534-22.793,13.702c-1.581-0.527-3.426-0.791-5.138-0.791c-9.486,0-17.128,7.642-17.128,17.128 c0,1.186,0.132,2.372,0.395,3.426C6.719,34.783,0,42.424,0,51.515C0,61.66,8.169,69.829,18.314,69.829h63.373 C91.831,69.829,100,61.66,100,51.515C99.868,42.556,93.281,35.046,84.717,33.597z" style="fill:rgb(245, 125, 0);transform:matrix(0.5, 0, 0, 0.5, 0, 0);;animation:none"></path></g>
<g transform="matrix(1,0,0,1,235.56829833984375,505.8305358886719)" style="transform:matrix(1, 0, 0, 1, 235.568, 505.831);;animation:none"><path transform="matrix(0.5,0,0,0.5,0,0)" fill="#f57d00" d="M84.717,33.597c0.791-2.503,1.186-5.138,1.186-7.773C85.903,11.594,74.308,0,60.079,0 c-9.881,0-18.445,5.534-22.793,13.702c-1.581-0.527-3.426-0.791-5.138-0.791c-9.486,0-17.128,7.642-17.128,17.128 c0,1.186,0.132,2.372,0.395,3.426C6.719,34.783,0,42.424,0,51.515C0,61.66,8.169,69.829,18.314,69.829h63.373 C91.831,69.829,100,61.66,100,51.515C99.868,42.556,93.281,35.046,84.717,33.597z" style="fill:rgb(245, 125, 0);transform:matrix(0.5, 0, 0, 0.5, 0, 0);;animation:none"></path></g>
<g transform="matrix(1,0,0,1,1044.586181640625,430.6507263183594)" style="transform:matrix(1, 0, 0, 1, 1044.59, 430.651);;animation:none"><path transform="matrix(0.5,0,0,0.5,0,0)" fill="#f57d00" d="M84.717,33.597c0.791-2.503,1.186-5.138,1.186-7.773C85.903,11.594,74.308,0,60.079,0 c-9.881,0-18.445,5.534-22.793,13.702c-1.581-0.527-3.426-0.791-5.138-0.791c-9.486,0-17.128,7.642-17.128,17.128 c0,1.186,0.132,2.372,0.395,3.426C6.719,34.783,0,42.424,0,51.515C0,61.66,8.169,69.829,18.314,69.829h63.373 C91.831,69.829,100,61.66,100,51.515C99.868,42.556,93.281,35.046,84.717,33.597z" style="fill:rgb(245, 125, 0);transform:matrix(0.5, 0, 0, 0.5, 0, 0);;animation:none"></path></g>
<g transform="matrix(1,0,0,1,1390.7332763671875,154.48553466796875)" style="transform:matrix(1, 0, 0, 1, 1390.73, 154.486);;animation:none"><path transform="matrix(0.5,0,0,0.5,0,0)" fill="#f57d00" d="M84.717,33.597c0.791-2.503,1.186-5.138,1.186-7.773C85.903,11.594,74.308,0,60.079,0 c-9.881,0-18.445,5.534-22.793,13.702c-1.581-0.527-3.426-0.791-5.138-0.791c-9.486,0-17.128,7.642-17.128,17.128 c0,1.186,0.132,2.372,0.395,3.426C6.719,34.783,0,42.424,0,51.515C0,61.66,8.169,69.829,18.314,69.829h63.373 C91.831,69.829,100,61.66,100,51.515C99.868,42.556,93.281,35.046,84.717,33.597z" style="fill:rgb(245, 125, 0);transform:matrix(0.5, 0, 0, 0.5, 0, 0);;animation:none"></path></g>
<g transform="matrix(1,0,0,1,2062.671630859375,863.8132934570312)" style="transform:matrix(1, 0, 0, 1, 2062.67, 863.813);;animation:none"><path transform="matrix(0.5,0,0,0.5,0,0)" fill="#f57d00" d="M84.717,33.597c0.791-2.503,1.186-5.138,1.186-7.773C85.903,11.594,74.308,0,60.079,0 c-9.881,0-18.445,5.534-22.793,13.702c-1.581-0.527-3.426-0.791-5.138-0.791c-9.486,0-17.128,7.642-17.128,17.128 c0,1.186,0.132,2.372,0.395,3.426C6.719,34.783,0,42.424,0,51.515C0,61.66,8.169,69.829,18.314,69.829h63.373 C91.831,69.829,100,61.66,100,51.515C99.868,42.556,93.281,35.046,84.717,33.597z" style="fill:rgb(245, 125, 0);transform:matrix(0.5, 0, 0, 0.5, 0, 0);;animation:none"></path></g>
<g transform="matrix(1,0,0,1,908.004638671875,742.1002807617188)" style="transform:matrix(1, 0, 0, 1, 908.005, 742.1);;animation:none"><path transform="matrix(0.5,0,0,0.5,0,0)" fill="#f57d00" d="M84.717,33.597c0.791-2.503,1.186-5.138,1.186-7.773C85.903,11.594,74.308,0,60.079,0 c-9.881,0-18.445,5.534-22.793,13.702c-1.581-0.527-3.426-0.791-5.138-0.791c-9.486,0-17.128,7.642-17.128,17.128 c0,1.186,0.132,2.372,0.395,3.426C6.719,34.783,0,42.424,0,51.515C0,61.66,8.169,69.829,18.314,69.829h63.373 C91.831,69.829,100,61.66,100,51.515C99.868,42.556,93.281,35.046,84.717,33.597z" style="fill:rgb(245, 125, 0);transform:matrix(0.5, 0, 0, 0.5, 0, 0);;animation:none"></path></g>
<g transform="matrix(1,0,0,1,1476.0838623046875,396.89678955078125)" style="transform:matrix(1, 0, 0, 1, 1476.08, 396.897);;animation:none"><path transform="matrix(0.5,0,0,0.5,0,0)" fill="#f57d00" d="M84.717,33.597c0.791-2.503,1.186-5.138,1.186-7.773C85.903,11.594,74.308,0,60.079,0 c-9.881,0-18.445,5.534-22.793,13.702c-1.581-0.527-3.426-0.791-5.138-0.791c-9.486,0-17.128,7.642-17.128,17.128 c0,1.186,0.132,2.372,0.395,3.426C6.719,34.783,0,42.424,0,51.515C0,61.66,8.169,69.829,18.314,69.829h63.373 C91.831,69.829,100,61.66,100,51.515C99.868,42.556,93.281,35.046,84.717,33.597z" style="fill:rgb(245, 125, 0);transform:matrix(0.5, 0, 0, 0.5, 0, 0);;animation:none"></path></g>
<g transform="matrix(1,0,0,1,2486.233642578125,654.5142822265625)" style="transform:matrix(1, 0, 0, 1, 2486.23, 654.514);;animation:none"><path transform="matrix(0.5,0,0,0.5,0,0)" fill="#f57d00" d="M84.717,33.597c0.791-2.503,1.186-5.138,1.186-7.773C85.903,11.594,74.308,0,60.079,0 c-9.881,0-18.445,5.534-22.793,13.702c-1.581-0.527-3.426-0.791-5.138-0.791c-9.486,0-17.128,7.642-17.128,17.128 c0,1.186,0.132,2.372,0.395,3.426C6.719,34.783,0,42.424,0,51.515C0,61.66,8.169,69.829,18.314,69.829h63.373 C91.831,69.829,100,61.66,100,51.515C99.868,42.556,93.281,35.046,84.717,33.597z" style="fill:rgb(245, 125, 0);transform:matrix(0.5, 0, 0, 0.5, 0, 0);;animation:none"></path></g>
<g transform="matrix(1,0,0,1,2356.6982421875,662.259521484375)" style="transform:matrix(1, 0, 0, 1, 2356.7, 662.26);;animation:none"><path transform="matrix(0.5,0,0,0.5,0,0)" fill="#f57d00" d="M84.717,33.597c0.791-2.503,1.186-5.138,1.186-7.773C85.903,11.594,74.308,0,60.079,0 c-9.881,0-18.445,5.534-22.793,13.702c-1.581-0.527-3.426-0.791-5.138-0.791c-9.486,0-17.128,7.642-17.128,17.128 c0,1.186,0.132,2.372,0.395,3.426C6.719,34.783,0,42.424,0,51.515C0,61.66,8.169,69.829,18.314,69.829h63.373 C91.831,69.829,100,61.66,100,51.515C99.868,42.556,93.281,35.046,84.717,33.597z" style="fill:rgb(245, 125, 0);transform:matrix(0.5, 0, 0, 0.5, 0, 0);;animation:none"></path></g>
<g></g></g><!-- [ldio] generated by https://loading.io --></svg>